<svg width="776" height="1031" viewBox="0 0 776 1031" fill="none" xmlns="http://www.w3.org/2000/svg">
<g filter="url(#filter0_d_47_26)">
<g filter="url(#filter1_i_47_26)">
<g filter="url(#filter2_i_47_26)">
<path d="M473.484 244.706C362.368 220.339 342.367 332.203 204.584 312.267C66.7997 292.331 300.143 646.749 159.026 761.935C17.909 877.121 505.708 1111.92 501.263 985.661C496.818 859.4 840.167 746.429 759.052 661.147C677.938 575.865 784.609 362.107 719.05 362.107C653.492 362.107 584.6 269.072 473.484 244.706Z" fill="#030C2E"/>
</g>
<path d="M473.484 244.706C362.368 220.339 342.367 332.203 204.584 312.267C66.7997 292.331 300.143 646.749 159.026 761.935C17.909 877.121 505.708 1111.92 501.263 985.661C496.818 859.4 840.167 746.429 759.052 661.147C677.938 575.865 784.609 362.107 719.05 362.107C653.492 362.107 584.6 269.072 473.484 244.706Z" stroke="black"/>
<g filter="url(#filter3_i_47_26)">
<path d="M469.835 324.427C376.258 303.915 359.414 398.081 243.378 381.299C127.343 364.517 323.855 662.862 205.012 759.824C86.1688 856.786 496.973 1054.44 493.23 948.154C489.487 841.869 778.641 746.771 710.329 674.982C642.018 603.193 731.852 423.253 676.641 423.253C621.431 423.253 563.413 344.938 469.835 324.427Z" fill="#030F39"/>
</g>
<path d="M469.835 324.427C376.258 303.915 359.414 398.081 243.378 381.299C127.343 364.517 323.855 662.862 205.012 759.824C86.1688 856.786 496.973 1054.44 493.23 948.154C489.487 841.869 778.641 746.771 710.329 674.982C642.018 603.193 731.852 423.253 676.641 423.253C621.431 423.253 563.413 344.938 469.835 324.427Z" stroke="black"/>
<g filter="url(#filter4_i_47_26)">
<path d="M466.27 405.742C395.871 390.321 383.199 461.121 295.905 448.503C208.61 435.885 356.448 660.202 267.041 733.105C177.634 806.008 486.686 954.619 483.87 874.706C481.054 794.793 698.587 723.292 647.196 669.315C595.804 615.339 663.387 480.048 621.852 480.048C580.317 480.048 536.669 421.164 466.27 405.742Z" fill="#122052"/>
</g>
<path d="M466.27 405.742C395.871 390.321 383.199 461.121 295.905 448.503C208.61 435.885 356.448 660.202 267.041 733.105C177.634 806.008 486.686 954.619 483.87 874.706C481.054 794.793 698.587 723.292 647.196 669.315C595.804 615.339 663.387 480.048 621.852 480.048C580.317 480.048 536.669 421.164 466.27 405.742Z" stroke="black"/>
<g filter="url(#filter5_i_47_26)">
<path d="M463.558 452.095C406.848 439.665 396.64 496.732 326.319 486.561C255.999 476.391 375.09 657.196 303.068 715.958C231.046 774.719 480.004 894.503 477.736 830.091C475.467 765.679 650.702 708.047 609.304 664.541C567.905 621.035 622.347 511.987 588.888 511.987C555.429 511.987 520.269 464.526 463.558 452.095Z" fill="#283565"/>
</g>
<path d="M463.558 452.095C406.848 439.665 396.64 496.732 326.319 486.561C255.999 476.391 375.09 657.196 303.068 715.958C231.046 774.719 480.004 894.503 477.736 830.091C475.467 765.679 650.702 708.047 609.304 664.541C567.905 621.035 622.347 511.987 588.888 511.987C555.429 511.987 520.269 464.526 463.558 452.095Z" stroke="black"/>
<g filter="url(#filter6_i_47_26)">
<path d="M461.515 501.21C418.851 491.864 411.172 534.771 358.269 527.124C305.366 519.477 394.96 655.42 340.777 699.601C286.594 743.782 473.887 833.844 472.181 785.414C470.474 736.985 602.305 693.653 571.161 660.942C540.016 628.231 580.973 546.241 555.802 546.241C530.63 546.241 504.179 510.556 461.515 501.21Z" fill="#505C87"/>
</g>
<path d="M461.515 501.21C418.851 491.864 411.172 534.771 358.269 527.124C305.366 519.477 394.96 655.42 340.777 699.601C286.594 743.782 473.887 833.844 472.181 785.414C470.474 736.985 602.305 693.653 571.161 660.942C540.016 628.231 580.973 546.241 555.802 546.241C530.63 546.241 504.179 510.556 461.515 501.21Z" stroke="black"/>
<path d="M431.084 585.683C419.742 554.766 420.598 559.031 424.022 558.391C427.446 557.751 443.925 558.817 460.831 585.683C477.737 612.548 477.951 632.803 481.803 641.545C485.655 650.287 494.644 662.227 498.924 616.599C503.204 570.971 532.123 669.755 518.184 698.261C505.986 723.207 478.098 746.352 446.707 743.463C415.275 740.57 397.922 717.76 388.283 687.813C378.762 658.233 390.851 619.371 402.622 609.563C414.392 599.755 392.992 615.533 416.532 638.347C440.072 661.161 442.426 616.599 431.084 585.683Z" stroke="black"/>
<g filter="url(#filter7_i_47_26)">
<path d="M431.084 585.683C419.742 554.766 420.598 559.031 424.022 558.391C427.446 557.751 443.925 558.817 460.831 585.683C477.737 612.548 477.951 632.803 481.803 641.545C485.655 650.287 494.644 662.227 498.924 616.599C503.204 570.971 532.123 669.755 518.184 698.261C505.986 723.207 478.098 746.352 446.707 743.463C415.275 740.57 397.922 717.76 388.283 687.813C378.762 658.233 390.851 619.371 402.622 609.563C414.392 599.755 392.992 615.533 416.532 638.347C440.072 661.161 442.426 616.599 431.084 585.683Z" fill="#E04817"/>
</g>
<path d="M431.084 585.683C419.742 554.766 420.598 559.031 424.022 558.391C427.446 557.751 443.925 558.817 460.831 585.683C477.737 612.548 477.951 632.803 481.803 641.545C485.655 650.287 494.644 662.227 498.924 616.599C503.204 570.971 532.123 669.755 518.184 698.261C505.986 723.207 478.098 746.352 446.707 743.463C415.275 740.57 397.922 717.76 388.283 687.813C378.762 658.233 390.851 619.371 402.622 609.563C414.392 599.755 392.992 615.533 416.532 638.347C440.072 661.161 442.426 616.599 431.084 585.683Z" stroke="black"/>
<path d="M455.481 642.479C448.859 624.35 442.965 626.85 444.964 626.475C446.963 626.1 461.447 626.725 471.317 642.479C481.187 658.233 480.197 666.269 482.445 671.395C484.694 676.521 491.503 687.918 494.002 661.161C496.5 634.404 507.917 691.565 499.78 708.282C492.659 722.91 476.533 736.697 458.207 735.003C439.857 733.307 420.019 716.248 414.392 698.687C408.834 681.341 417.228 660.729 424.1 654.977C430.971 649.226 419.91 661.859 433.652 675.238C447.395 688.616 462.102 660.609 455.481 642.479Z" stroke="black"/>
<g filter="url(#filter8_i_47_26)">
<path d="M455.481 642.479C448.859 624.35 442.965 626.85 444.964 626.475C446.963 626.1 461.447 626.725 471.317 642.479C481.187 658.233 480.197 666.269 482.445 671.395C484.694 676.521 491.503 687.918 494.002 661.161C496.5 634.404 507.917 691.565 499.78 708.282C492.659 722.91 476.533 736.697 458.207 735.003C439.857 733.307 420.019 716.248 414.392 698.687C408.834 681.341 417.228 660.729 424.1 654.977C430.971 649.226 419.91 661.859 433.652 675.238C447.395 688.616 462.102 660.609 455.481 642.479Z" fill="#FFE600"/>
</g>
<path d="M455.481 642.479C448.859 624.35 442.965 626.85 444.964 626.475C446.963 626.1 461.447 626.725 471.317 642.479C481.187 658.233 480.197 666.269 482.445 671.395C484.694 676.521 491.503 687.918 494.002 661.161C496.5 634.404 507.917 691.565 499.78 708.282C492.659 722.91 476.533 736.697 458.207 735.003C439.857 733.307 420.019 716.248 414.392 698.687C408.834 681.341 417.228 660.729 424.1 654.977C430.971 649.226 419.91 661.859 433.652 675.238C447.395 688.616 462.102 660.609 455.481 642.479Z" stroke="black"/>
<path d="M484.627 543.822C482.11 536.926 479.87 537.877 480.63 537.734C481.389 537.592 486.895 537.83 490.647 543.822C494.399 549.815 494.022 552.872 494.877 554.822C495.732 556.772 498.32 561.107 499.27 550.929C500.219 540.75 504.559 562.495 501.466 568.853C498.759 574.418 492.63 579.663 485.663 579.018C478.689 578.373 471.148 571.884 469.009 565.204C466.896 558.605 470.087 550.764 472.699 548.577C475.311 546.389 471.106 551.194 476.33 556.284C481.554 561.373 487.144 550.719 484.627 543.822Z" stroke="black"/>
<g filter="url(#filter9_i_47_26)">
<path d="M484.627 543.822C482.11 536.926 479.87 537.877 480.63 537.734C481.389 537.592 486.895 537.83 490.647 543.822C494.399 549.815 494.022 552.872 494.877 554.822C495.732 556.772 498.32 561.107 499.27 550.929C500.219 540.75 504.559 562.495 501.466 568.853C498.759 574.418 492.63 579.663 485.663 579.018C478.689 578.373 471.148 571.884 469.009 565.204C466.896 558.605 470.087 550.764 472.699 548.577C475.311 546.389 471.106 551.194 476.33 556.284C481.554 561.373 487.144 550.719 484.627 543.822Z" fill="#E04817"/>
</g>
<path d="M484.627 543.822C482.11 536.926 479.87 537.877 480.63 537.734C481.389 537.592 486.895 537.83 490.647 543.822C494.399 549.815 494.022 552.872 494.877 554.822C495.732 556.772 498.32 561.107 499.27 550.929C500.219 540.75 504.559 562.495 501.466 568.853C498.759 574.418 492.63 579.663 485.663 579.018C478.689 578.373 471.148 571.884 469.009 565.204C466.896 558.605 470.087 550.764 472.699 548.577C475.311 546.389 471.106 551.194 476.33 556.284C481.554 561.373 487.144 550.719 484.627 543.822Z" stroke="black"/>
<path d="M487.643 556.686C486.51 553.558 485.502 553.989 485.844 553.925C486.186 553.86 488.664 553.968 490.352 556.686C492.04 559.405 491.871 560.791 492.255 561.676C492.64 562.56 493.805 564.527 494.232 559.91C494.659 555.293 496.612 565.156 495.22 568.041C494.002 570.565 491.244 572.944 488.109 572.651C484.971 572.359 481.577 569.415 480.615 566.385C479.664 563.392 481.1 559.835 482.275 558.843C483.451 557.85 481.558 560.03 483.909 562.339C486.26 564.647 488.776 559.815 487.643 556.686Z" stroke="black"/>
<g filter="url(#filter10_i_47_26)">
<path d="M487.643 556.686C486.51 553.558 485.502 553.989 485.844 553.925C486.186 553.86 488.664 553.968 490.352 556.686C492.04 559.405 491.871 560.791 492.255 561.676C492.64 562.56 493.805 564.527 494.232 559.91C494.659 555.293 496.612 565.156 495.22 568.041C494.002 570.565 491.244 572.944 488.109 572.651C484.971 572.359 481.577 569.415 480.615 566.385C479.664 563.392 481.1 559.835 482.275 558.843C483.451 557.85 481.558 560.03 483.909 562.339C486.26 564.647 488.776 559.815 487.643 556.686Z" fill="#FFE500"/>
</g>
<path d="M487.643 556.686C486.51 553.558 485.502 553.989 485.844 553.925C486.186 553.86 488.664 553.968 490.352 556.686C492.04 559.405 491.871 560.791 492.255 561.676C492.64 562.56 493.805 564.527 494.232 559.91C494.659 555.293 496.612 565.156 495.22 568.041C494.002 570.565 491.244 572.944 488.109 572.651C484.971 572.359 481.577 569.415 480.615 566.385C479.664 563.392 481.1 559.835 482.275 558.843C483.451 557.85 481.558 560.03 483.909 562.339C486.26 564.647 488.776 559.815 487.643 556.686Z" stroke="black"/>
</g>
<g filter="url(#filter11_b_47_26)">
<path d="M560.111 273.833C480.577 355.601 454.661 471.776 176.29 456.137C-102.082 440.498 -1.0995 470.435 183.886 490.989C368.871 511.543 492.194 423.072 584.686 293.046C677.179 163.021 639.646 192.064 560.111 273.833Z" fill="#030C2E"/>
</g>
<g filter="url(#filter12_b_47_26)">
<path d="M676.041 537.707C569.305 497.466 452.452 520.126 355.567 258.69C258.682 -2.74489 271.585 101.788 326.653 279.579C381.72 457.369 512.096 535.073 668.247 567.912C824.398 600.75 782.777 577.947 676.041 537.707Z" fill="#030C2E"/>
</g>
<g filter="url(#filter13_b_47_26)">
<path d="M261.907 886.651C320.326 847.175 339.31 791.165 543.947 798.459C748.584 805.752 674.336 791.413 538.343 781.67C402.351 771.926 311.747 814.67 243.831 877.413C175.915 940.156 203.489 926.126 261.907 886.651Z" fill="#030C2E"/>
</g>
<g filter="url(#filter14_b_47_26)">
<path d="M136.458 848.898C205.059 832.622 242.617 786.94 431.463 866.103C620.31 945.265 555.924 905.605 432.156 848.416C308.389 791.228 208.525 799.183 122.814 833.867C37.1037 868.55 67.8564 865.174 136.458 848.898Z" fill="#030C2E"/>
</g>
</g>
<defs>
<filter id="filter0_d_47_26" x="0" y="101.167" width="775.959" height="929.273" filterUnits="userSpaceOnUse" color-interpolation-filters="sRGB">
<feFlood flood-opacity="0" result="BackgroundImageFix"/>
<feColorMatrix in="SourceAlpha" type="matrix" values="0 0 0 0 0 0 0 0 0 0 0 0 0 0 0 0 0 0 127 0" result="hardAlpha"/>
<feOffset dy="4"/>
<feGaussianBlur stdDeviation="2"/>
<feComposite in2="hardAlpha" operator="out"/>
<feColorMatrix type="matrix" values="0 0 0 0 0 0 0 0 0 0 0 0 0 0 0 0 0 0 0.25 0"/>
<feBlend mode="normal" in2="BackgroundImageFix" result="effect1_dropShadow_47_26"/>
<feBlend mode="normal" in="SourceGraphic" in2="effect1_dropShadow_47_26" result="shape"/>
</filter>
<filter id="filter1_i_47_26" x="132.895" y="240.715" width="645.064" height="787.725" filterUnits="userSpaceOnUse" color-interpolation-filters="sRGB">
<feFlood flood-opacity="0" result="BackgroundImageFix"/>
<feBlend mode="normal" in="SourceGraphic" in2="BackgroundImageFix" result="shape"/>
<feColorMatrix in="SourceAlpha" type="matrix" values="0 0 0 0 0 0 0 0 0 0 0 0 0 0 0 0 0 0 127 0" result="hardAlpha"/>
<feOffset dx="6" dy="6"/>
<feGaussianBlur stdDeviation="3"/>
<feComposite in2="hardAlpha" operator="arithmetic" k2="-1" k3="1"/>
<feColorMatrix type="matrix" values="0 0 0 0 0 0 0 0 0 0 0 0 0 0 0 0 0 0 0.5 0"/>
<feBlend mode="normal" in2="shape" result="effect1_innerShadow_47_26"/>
</filter>
<filter id="filter2_i_47_26" x="132.895" y="240.715" width="649.064" height="791.725" filterUnits="userSpaceOnUse" color-interpolation-filters="sRGB">
<feFlood flood-opacity="0" result="BackgroundImageFix"/>
<feBlend mode="normal" in="SourceGraphic" in2="BackgroundImageFix" result="shape"/>
<feColorMatrix in="SourceAlpha" type="matrix" values="0 0 0 0 0 0 0 0 0 0 0 0 0 0 0 0 0 0 127 0" result="hardAlpha"/>
<feOffset dx="10" dy="10"/>
<feGaussianBlur stdDeviation="5"/>
<feComposite in2="hardAlpha" operator="arithmetic" k2="-1" k3="1"/>
<feColorMatrix type="matrix" values="0 0 0 0 0 0 0 0 0 0 0 0 0 0 0 0 0 0 0.5 0"/>
<feBlend mode="normal" in2="shape" result="effect1_innerShadow_47_26"/>
</filter>
<filter id="filter3_i_47_26" x="182.926" y="320.988" width="548.351" height="668.205" filterUnits="userSpaceOnUse" color-interpolation-filters="sRGB">
<feFlood flood-opacity="0" result="BackgroundImageFix"/>
<feBlend mode="normal" in="SourceGraphic" in2="BackgroundImageFix" result="shape"/>
<feColorMatrix in="SourceAlpha" type="matrix" values="0 0 0 0 0 0 0 0 0 0 0 0 0 0 0 0 0 0 127 0" result="hardAlpha"/>
<feOffset dx="10" dy="10"/>
<feGaussianBlur stdDeviation="5"/>
<feComposite in2="hardAlpha" operator="arithmetic" k2="-1" k3="1"/>
<feColorMatrix type="matrix" values="0 0 0 0 0 0 0 0 0 0 0 0 0 0 0 0 0 0 0.5 0"/>
<feBlend mode="normal" in2="shape" result="effect1_innerShadow_47_26"/>
</filter>
<filter id="filter4_i_47_26" x="250.302" y="403.033" width="415.254" height="505.134" filterUnits="userSpaceOnUse" color-interpolation-filters="sRGB">
<feFlood flood-opacity="0" result="BackgroundImageFix"/>
<feBlend mode="normal" in="SourceGraphic" in2="BackgroundImageFix" result="shape"/>
<feColorMatrix in="SourceAlpha" type="matrix" values="0 0 0 0 0 0 0 0 0 0 0 0 0 0 0 0 0 0 127 0" result="hardAlpha"/>
<feOffset dx="10" dy="10"/>
<feGaussianBlur stdDeviation="5"/>
<feComposite in2="hardAlpha" operator="arithmetic" k2="-1" k3="1"/>
<feColorMatrix type="matrix" values="0 0 0 0 0 0 0 0 0 0 0 0 0 0 0 0 0 0 0.5 0"/>
<feBlend mode="normal" in2="shape" result="effect1_innerShadow_47_26"/>
</filter>
<filter id="filter5_i_47_26" x="289.487" y="449.814" width="336.649" height="409.283" filterUnits="userSpaceOnUse" color-interpolation-filters="sRGB">
<feFlood flood-opacity="0" result="BackgroundImageFix"/>
<feBlend mode="normal" in="SourceGraphic" in2="BackgroundImageFix" result="shape"/>
<feColorMatrix in="SourceAlpha" type="matrix" values="0 0 0 0 0 0 0 0 0 0 0 0 0 0 0 0 0 0 127 0" result="hardAlpha"/>
<feOffset dx="10" dy="10"/>
<feGaussianBlur stdDeviation="5"/>
<feComposite in2="hardAlpha" operator="arithmetic" k2="-1" k3="1"/>
<feColorMatrix type="matrix" values="0 0 0 0 0 0 0 0 0 0 0 0 0 0 0 0 0 0 0.5 0"/>
<feBlend mode="normal" in2="shape" result="effect1_innerShadow_47_26"/>
</filter>
<filter id="filter6_i_47_26" x="330.436" y="499.371" width="255.989" height="310.458" filterUnits="userSpaceOnUse" color-interpolation-filters="sRGB">
<feFlood flood-opacity="0" result="BackgroundImageFix"/>
<feBlend mode="normal" in="SourceGraphic" in2="BackgroundImageFix" result="shape"/>
<feColorMatrix in="SourceAlpha" type="matrix" values="0 0 0 0 0 0 0 0 0 0 0 0 0 0 0 0 0 0 127 0" result="hardAlpha"/>
<feOffset dx="10" dy="10"/>
<feGaussianBlur stdDeviation="5"/>
<feComposite in2="hardAlpha" operator="arithmetic" k2="-1" k3="1"/>
<feColorMatrix type="matrix" values="0 0 0 0 0 0 0 0 0 0 0 0 0 0 0 0 0 0 0.5 0"/>
<feBlend mode="normal" in2="shape" result="effect1_innerShadow_47_26"/>
</filter>
<filter id="filter7_i_47_26" x="384.352" y="557.773" width="148.099" height="196.434" filterUnits="userSpaceOnUse" color-interpolation-filters="sRGB">
<feFlood flood-opacity="0" result="BackgroundImageFix"/>
<feBlend mode="normal" in="SourceGraphic" in2="BackgroundImageFix" result="shape"/>
<feColorMatrix in="SourceAlpha" type="matrix" values="0 0 0 0 0 0 0 0 0 0 0 0 0 0 0 0 0 0 127 0" result="hardAlpha"/>
<feOffset dx="10" dy="10"/>
<feGaussianBlur stdDeviation="5"/>
<feComposite in2="hardAlpha" operator="arithmetic" k2="-1" k3="1"/>
<feColorMatrix type="matrix" values="0 0 0 0 0 0 0 0 0 0 0 0 0 0 0 0 0 0 0.5 0"/>
<feBlend mode="normal" in2="shape" result="effect1_innerShadow_47_26"/>
</filter>
<filter id="filter8_i_47_26" x="412.083" y="625.906" width="101.08" height="119.739" filterUnits="userSpaceOnUse" color-interpolation-filters="sRGB">
<feFlood flood-opacity="0" result="BackgroundImageFix"/>
<feBlend mode="normal" in="SourceGraphic" in2="BackgroundImageFix" result="shape"/>
<feColorMatrix in="SourceAlpha" type="matrix" values="0 0 0 0 0 0 0 0 0 0 0 0 0 0 0 0 0 0 127 0" result="hardAlpha"/>
<feOffset dx="10" dy="10"/>
<feGaussianBlur stdDeviation="5"/>
<feComposite in2="hardAlpha" operator="arithmetic" k2="-1" k3="1"/>
<feColorMatrix type="matrix" values="0 0 0 0 0 0 0 0 0 0 0 0 0 0 0 0 0 0 0.5 0"/>
<feBlend mode="normal" in2="shape" result="effect1_innerShadow_47_26"/>
</filter>
<filter id="filter9_i_47_26" x="467.821" y="537.208" width="40.2407" height="47.3643" filterUnits="userSpaceOnUse" color-interpolation-filters="sRGB">
<feFlood flood-opacity="0" result="BackgroundImageFix"/>
<feBlend mode="normal" in="SourceGraphic" in2="BackgroundImageFix" result="shape"/>
<feColorMatrix in="SourceAlpha" type="matrix" values="0 0 0 0 0 0 0 0 0 0 0 0 0 0 0 0 0 0 127 0" result="hardAlpha"/>
<feOffset dx="5" dy="5"/>
<feGaussianBlur stdDeviation="2.5"/>
<feComposite in2="hardAlpha" operator="arithmetic" k2="-1" k3="1"/>
<feColorMatrix type="matrix" values="0 0 0 0 0 0 0 0 0 0 0 0 0 0 0 0 0 0 0.5 0"/>
<feBlend mode="normal" in2="shape" result="effect1_innerShadow_47_26"/>
</filter>
<filter id="filter10_i_47_26" x="479.805" y="553.413" width="21.4082" height="24.7632" filterUnits="userSpaceOnUse" color-interpolation-filters="sRGB">
<feFlood flood-opacity="0" result="BackgroundImageFix"/>
<feBlend mode="normal" in="SourceGraphic" in2="BackgroundImageFix" result="shape"/>
<feColorMatrix in="SourceAlpha" type="matrix" values="0 0 0 0 0 0 0 0 0 0 0 0 0 0 0 0 0 0 127 0" result="hardAlpha"/>
<feOffset dx="5" dy="5"/>
<feGaussianBlur stdDeviation="2.5"/>
<feComposite in2="hardAlpha" operator="arithmetic" k2="-1" k3="1"/>
<feColorMatrix type="matrix" values="0 0 0 0 0 0 0 0 0 0 0 0 0 0 0 0 0 0 0.5 0"/>
<feBlend mode="normal" in2="shape" result="effect1_innerShadow_47_26"/>
</filter>
<filter id="filter11_b_47_26" x="0" y="199.974" width="642.95" height="297.98" filterUnits="userSpaceOnUse" color-interpolation-filters="sRGB">
<feFlood flood-opacity="0" result="BackgroundImageFix"/>
<feGaussianBlur in="BackgroundImageFix" stdDeviation="2"/>
<feComposite in2="SourceAlpha" operator="in" result="effect1_backgroundBlur_47_26"/>
<feBlend mode="normal" in="SourceGraphic" in2="effect1_backgroundBlur_47_26" result="shape"/>
</filter>
<filter id="filter12_b_47_26" x="279.968" y="97.1667" width="495.162" height="490.451" filterUnits="userSpaceOnUse" color-interpolation-filters="sRGB">
<feFlood flood-opacity="0" result="BackgroundImageFix"/>
<feGaussianBlur in="BackgroundImageFix" stdDeviation="2"/>
<feComposite in2="SourceAlpha" operator="in" result="effect1_backgroundBlur_47_26"/>
<feBlend mode="normal" in="SourceGraphic" in2="effect1_backgroundBlur_47_26" result="shape"/>
</filter>
<filter id="filter13_b_47_26" x="199.992" y="776.286" width="474.603" height="148.099" filterUnits="userSpaceOnUse" color-interpolation-filters="sRGB">
<feFlood flood-opacity="0" result="BackgroundImageFix"/>
<feGaussianBlur in="BackgroundImageFix" stdDeviation="2"/>
<feComposite in2="SourceAlpha" operator="in" result="effect1_backgroundBlur_47_26"/>
<feBlend mode="normal" in="SourceGraphic" in2="effect1_backgroundBlur_47_26" result="shape"/>
</filter>
<filter id="filter14_b_47_26" x="66.5994" y="802.645" width="487.633" height="111.902" filterUnits="userSpaceOnUse" color-interpolation-filters="sRGB">
<feFlood flood-opacity="0" result="BackgroundImageFix"/>
<feGaussianBlur in="BackgroundImageFix" stdDeviation="2"/>
<feComposite in2="SourceAlpha" operator="in" result="effect1_backgroundBlur_47_26"/>
<feBlend mode="normal" in="SourceGraphic" in2="effect1_backgroundBlur_47_26" result="shape"/>
</filter>
</defs>
</svg>
