<svg width="315" height="313" viewBox="0 0 315 313" fill="none" xmlns="http://www.w3.org/2000/svg">
<path d="M133.587 22.8667L132.147 15.5779L133.603 15.2904L135.043 22.5792L137.657 22.0626L137.92 23.3946L131.236 24.7153L130.973 23.3833L133.587 22.8667Z" fill="white"/>
<path d="M118.48 22.4565L117.342 19.0193L118.679 18.5769L121.605 27.4206L120.269 27.863L119.06 24.2109C118.998 24.664 118.813 25.0651 118.505 25.4143C118.189 25.7661 117.808 26.0157 117.362 26.1632C116.646 26.4002 115.997 26.3723 115.415 26.0795C114.824 25.7893 114.392 25.2305 114.118 24.403L112.831 20.5123L114.167 20.0699L115.321 23.5549C115.708 24.7245 116.387 25.1487 117.357 24.8274C117.819 24.6747 118.169 24.3866 118.409 23.963C118.651 23.5475 118.674 23.0453 118.48 22.4565Z" fill="white"/>
<path d="M97.0599 29.8055L101.794 27.553C101.554 27.1285 101.185 26.8682 100.684 26.7722C100.187 26.6838 99.7005 26.7531 99.2237 26.9799C98.4669 27.34 98.0052 27.8521 97.8385 28.5162L96.7339 28.0672C97.0642 27.084 97.7516 26.3439 98.7959 25.8469C99.6435 25.4436 100.499 25.3797 101.364 25.6552C102.224 25.9419 102.879 26.5583 103.33 27.5043C103.783 28.4578 103.841 29.3586 103.502 30.2067C103.163 31.0549 102.585 31.6734 101.767 32.0623C100.943 32.4548 100.124 32.5382 99.3109 32.3124C98.5016 32.0942 97.8899 31.5499 97.4758 30.6796L97.0599 29.8055ZM102.269 28.552L98.8066 30.1995C99.0479 30.7065 99.3923 31.0207 99.8398 31.1419C100.287 31.263 100.746 31.212 101.215 30.9887C101.676 30.7691 102.024 30.4272 102.258 29.9632C102.496 29.5067 102.499 29.0363 102.269 28.552Z" fill="white"/>
<path d="M80.2626 44.9246L78.8239 42.9865L75.6947 45.3093L74.8779 44.209L78.0072 41.8862L75.8492 38.979L77.0403 38.0949L82.2779 45.1508L77.574 48.6425L76.7598 47.5247L80.2626 44.9246Z" fill="white"/>
<path d="M59.5681 52.3208L60.4975 51.4373L61.1124 52.0843C61.0572 51.2233 61.3667 50.4723 62.0409 49.8314C62.5451 49.3521 63.1 49.0965 63.7054 49.0644C64.3048 49.0381 64.8297 49.2618 65.2801 49.7356C65.7363 50.2155 65.9008 50.7414 65.7737 51.3132C65.6466 51.885 65.2823 52.4567 64.6809 53.0283L63.3597 54.2842L63.533 54.4665C64.145 55.1104 64.8095 55.0916 65.5262 54.4103C65.9758 53.983 66.2876 53.3744 66.4617 52.5844L67.5236 52.7891C67.379 53.817 66.9331 54.686 66.186 55.3962C65.615 55.939 65.0117 56.2349 64.3761 56.284C63.7403 56.345 63.1279 56.0657 62.5389 55.4461L59.5681 52.3208ZM62.3035 53.1548L62.6933 53.5649L63.8414 52.4735C64.5764 51.7749 64.7244 51.1947 64.2856 50.733C64.0604 50.4961 63.7961 50.4005 63.4926 50.4462C63.1949 50.4979 62.885 50.6768 62.5631 50.9828C62.2351 51.2946 62.0362 51.6571 61.9664 52.0703C61.8967 52.4835 62.009 52.845 62.3035 53.1548Z" fill="white"/>
<path d="M49.6589 65.7731C49.1698 65.3651 48.9249 64.8606 48.9242 64.2597C48.9299 63.6641 49.1636 63.0897 49.6253 62.5362C49.9367 62.163 50.3291 61.83 50.8025 61.5373C51.2705 61.2511 51.7557 61.0555 52.2579 60.9506L52.6628 62.1725C51.713 62.3952 51.0046 62.7865 50.5375 63.3464C50.3335 63.5909 50.2271 63.8296 50.2184 64.0624C50.2161 64.3007 50.3018 64.4923 50.4756 64.6372C50.733 64.852 51.2493 64.7042 52.0243 64.1938C52.0866 64.1585 52.1316 64.1306 52.1596 64.1102C53.3404 63.2836 54.2687 63.1521 54.9444 63.7158C55.4206 64.1131 55.6473 64.6133 55.6244 65.2164C55.6026 65.8312 55.3447 66.4347 54.8508 67.0267C54.3568 67.6188 53.716 68.0337 52.9282 68.2715L52.4652 67.1976C53.0909 67.0102 53.6078 66.6719 54.0159 66.1828C54.2306 65.9254 54.3569 65.676 54.3945 65.4346C54.4387 65.1985 54.3674 65.0027 54.1808 64.847C54.0135 64.7074 53.8214 64.689 53.6046 64.7919C53.45 64.8594 53.2611 64.9747 53.0378 65.1376C52.8092 65.3071 52.602 65.4507 52.4163 65.5687C52.2306 65.6866 52.0438 65.7927 51.8559 65.8871C51.6627 65.9878 51.4357 66.0768 51.1749 66.1539C50.6533 66.3081 50.148 66.1812 49.6589 65.7731Z" fill="white"/>
<path d="M43.688 76.0939L40.6532 74.1193L41.4211 72.9391L49.2293 78.0195L48.4614 79.1997L45.237 77.1017C45.4715 77.4943 45.5774 77.9232 45.5547 78.3883C45.5274 78.8605 45.3858 79.2933 45.1298 79.6867C44.7185 80.319 44.1939 80.7026 43.5562 80.8375C42.9138 80.9795 42.2274 80.8129 41.4968 80.3375L38.0616 78.1024L38.8295 76.9222L41.9064 78.9242C42.9391 79.5961 43.7342 79.5036 44.2918 78.6465C44.5569 78.2391 44.6508 77.7952 44.5733 77.3149C44.5029 76.8391 44.2078 76.4321 43.688 76.0939Z" fill="white"/>
<path d="M31.1824 89.8519L31.8283 88.6008L37.7711 91.669L37.1251 92.9201L31.1824 89.8519ZM38.9148 92.3585C39.1519 92.2829 39.3784 92.3008 39.5944 92.4123C39.8104 92.5238 39.9562 92.6981 40.0318 92.9352C40.1075 93.1723 40.0895 93.3989 39.978 93.6149C39.8665 93.8308 39.6922 93.9766 39.4551 94.0523C39.218 94.1279 38.9914 94.11 38.7755 93.9985C38.5595 93.887 38.4137 93.7127 38.338 93.4756C38.2624 93.2384 38.2803 93.0119 38.3918 92.7959C38.5033 92.58 38.6776 92.4342 38.9148 92.3585Z" fill="white"/>
<path d="M28.2812 99.8318C27.7592 100.058 27.3858 100.456 27.161 101.025C26.9361 101.594 26.9383 102.135 27.1677 102.649C27.4018 103.175 27.8189 103.556 28.4191 103.793C29.0192 104.03 29.5803 104.035 30.1023 103.809C30.629 103.594 31.0048 103.202 31.2296 102.633C31.4545 102.064 31.4499 101.517 31.2158 100.992C30.9864 100.477 30.5717 100.102 29.9715 99.8645C29.3713 99.6273 28.8079 99.6164 28.2812 99.8318ZM25.9914 103.266C25.622 102.399 25.6222 101.498 25.9918 100.563C26.3614 99.6273 26.9773 98.9696 27.8395 98.5894C28.7095 98.2122 29.5926 98.2008 30.489 98.555C31.3853 98.9092 32.0182 99.5198 32.3875 100.387C32.7647 101.257 32.7684 102.159 32.3988 103.095C32.0292 104.03 31.4094 104.686 30.5394 105.063C29.6772 105.444 28.7979 105.457 27.9016 105.102C27.0052 104.748 26.3685 104.136 25.9914 103.266Z" fill="white"/>
<path d="M24.0326 117.052L20.5235 116.16L20.8702 114.796L27.3523 116.442L27.0056 117.807L25.8237 117.507C26.166 117.827 26.4024 118.207 26.5329 118.647C26.6613 119.094 26.6687 119.542 26.5552 119.988C26.3695 120.72 25.9965 121.252 25.4363 121.585C24.874 121.926 24.1704 121.99 23.3256 121.775L19.3535 120.766L19.7002 119.401L23.258 120.305C24.4521 120.609 25.175 120.265 25.4268 119.274C25.5464 118.803 25.4922 118.352 25.2642 117.922C25.0442 117.495 24.6337 117.205 24.0326 117.052Z" fill="white"/>
<path d="M15.3452 142.986L24.1259 143.33L24.0678 144.813L20.2616 144.663L20.0908 149.022L23.897 149.172L23.8389 150.654L15.0583 150.31L15.1163 148.827L18.709 148.968L18.8798 144.609L15.2872 144.469L15.3452 142.986Z" fill="white"/>
<path d="M16.922 165.021C16.5608 165.461 16.41 165.985 16.4696 166.594C16.5292 167.203 16.7783 167.684 17.217 168.037C17.6649 168.397 18.21 168.546 18.8523 168.483C19.4945 168.42 19.9963 168.169 20.3575 167.73C20.7278 167.298 20.8832 166.777 20.8237 166.168C20.7641 165.559 20.5104 165.075 20.0625 164.714C19.6237 164.361 19.0832 164.216 18.441 164.279C17.7987 164.342 17.2924 164.589 16.922 165.021ZM16.4517 169.122C15.7274 168.519 15.3164 167.718 15.2184 166.717C15.1205 165.716 15.3684 164.849 15.962 164.118C16.564 163.385 17.3446 162.972 18.3039 162.878C19.2631 162.784 20.1048 163.039 20.8291 163.641C21.5616 164.243 21.9769 165.045 22.0748 166.046C22.1728 167.047 21.9207 167.913 21.3187 168.646C20.7251 169.378 19.9486 169.791 18.9894 169.884C18.0301 169.978 17.1842 169.724 16.4517 169.122Z" fill="white"/>
<path d="M21.1903 185.592L24.7195 184.784L25.0338 186.157L18.5146 187.649L18.2003 186.277L19.3889 186.005C18.9381 185.876 18.5534 185.642 18.2349 185.302C17.9182 184.97 17.7085 184.58 17.6056 184.13C17.4372 183.395 17.5253 182.747 17.8699 182.187C18.2163 181.635 18.8143 181.261 19.6639 181.067L23.6588 180.152L23.9731 181.525L20.3949 182.344C19.194 182.619 18.7076 183.255 18.9358 184.251C19.0443 184.725 19.294 185.102 19.6849 185.382C20.084 185.661 20.5858 185.731 21.1903 185.592Z" fill="white"/>
<path d="M25.1311 203.227C24.5314 203.441 23.9724 203.396 23.4541 203.092C22.9437 202.785 22.5672 202.292 22.3244 201.614C22.1606 201.156 22.0727 200.649 22.0605 200.093C22.0512 199.544 22.1287 199.027 22.2931 198.541L23.5515 198.812C23.2617 199.743 23.2396 200.552 23.4852 201.239C23.5925 201.538 23.7443 201.751 23.9405 201.877C24.1447 202 24.3533 202.023 24.5664 201.947C24.882 201.834 25.0165 201.314 24.9697 200.387C24.9708 200.315 24.9696 200.262 24.9662 200.228C24.8527 198.791 25.2102 197.924 26.0388 197.628C26.6227 197.419 27.1687 197.477 27.6769 197.803C28.1957 198.134 28.585 198.662 28.8447 199.388C29.1045 200.114 29.137 200.877 28.9424 201.676L27.7821 201.53C27.9379 200.896 27.9085 200.279 27.694 199.679C27.5811 199.364 27.4301 199.128 27.2412 198.974C27.0601 198.816 26.8552 198.778 26.6263 198.86C26.4212 198.933 26.3079 199.089 26.2866 199.328C26.2664 199.496 26.2699 199.717 26.2972 199.992C26.3272 200.275 26.3459 200.527 26.3534 200.746C26.3608 200.966 26.3576 201.181 26.3436 201.391C26.3324 201.609 26.294 201.849 26.2281 202.113C26.0965 202.641 25.7308 203.012 25.1311 203.227Z" fill="white"/>
<path d="M32.3567 218.34L30.034 213.64C29.6131 213.886 29.3584 214.259 29.2698 214.761C29.1888 215.259 29.2653 215.745 29.4992 216.218C29.8705 216.97 30.3894 217.424 31.0559 217.581L30.6234 218.692C29.6354 218.376 28.8852 217.7 28.3727 216.663C27.9568 215.821 27.8802 214.967 28.1429 214.098C28.4167 213.234 29.0233 212.569 29.9624 212.105C30.9091 211.637 31.809 211.566 32.6621 211.893C33.5151 212.219 34.1422 212.788 34.5432 213.599C34.948 214.418 35.0435 215.236 34.8298 216.052C34.6236 216.864 34.0885 217.484 33.2245 217.911L32.3567 218.34ZM31.0258 213.15L32.7246 216.588C33.228 216.339 33.537 215.99 33.6515 215.541C33.7661 215.091 33.7082 214.634 33.478 214.168C33.2515 213.71 32.9045 213.367 32.437 213.14C31.9771 212.909 31.5067 212.913 31.0258 213.15Z" fill="white"/>
<path d="M48.8595 236.353L42.9602 240.869L42.0585 239.692L47.9577 235.175L46.3376 233.059L47.4156 232.234L51.5577 237.644L50.4797 238.469L48.8595 236.353Z" fill="white"/>
<path d="M55.1764 250.083L52.5974 252.624L51.6092 251.621L58.245 245.083L59.2331 246.086L56.4929 248.786C56.9266 248.641 57.3682 248.629 57.8177 248.751C58.273 248.879 58.6654 249.11 58.9948 249.444C59.5242 249.982 59.7865 250.576 59.7816 251.228C59.7827 251.886 59.4727 252.521 58.8518 253.132L55.9325 256.009L54.9443 255.006L57.5592 252.429C58.4368 251.565 58.5168 250.768 57.7992 250.04C57.458 249.694 57.0446 249.507 56.5588 249.48C56.079 249.446 55.6182 249.647 55.1764 250.083Z" fill="white"/>
<path d="M71.2448 266.039L67.1302 262.791C66.8553 263.193 66.7855 263.64 66.9209 264.131C67.0615 264.616 67.339 265.022 67.7534 265.349C68.4112 265.869 69.0747 266.056 69.7439 265.912L69.8302 267.101C68.8022 267.24 67.8344 266.951 66.9266 266.234C66.1899 265.653 65.7538 264.913 65.6184 264.016C65.4948 263.118 65.7576 262.257 66.4068 261.435C67.0611 260.606 67.8436 260.156 68.7541 260.085C69.6646 260.014 70.4751 260.258 71.1856 260.819C71.9026 261.385 72.3397 262.083 72.4969 262.912C72.6592 263.734 72.4418 264.523 71.8446 265.28L71.2448 266.039ZM67.8157 261.923L70.8252 264.299C71.1731 263.858 71.3024 263.41 71.2131 262.955C71.1238 262.5 70.8752 262.112 70.4673 261.79C70.0661 261.473 69.6056 261.312 69.0859 261.308C68.5715 261.297 68.1481 261.502 67.8157 261.923Z" fill="white"/>
<path d="M92.2358 274.413L91.1343 276.561L94.602 278.339L93.9767 279.559L90.509 277.78L88.8568 281.002L87.5368 280.325L91.5469 272.506L96.7596 275.179L96.1174 276.404L92.2358 274.413Z" fill="white"/>
<path d="M108.025 289.699L106.822 289.256L107.13 288.418C106.382 288.849 105.572 288.904 104.699 288.583C104.046 288.342 103.571 287.958 103.274 287.429C102.986 286.903 102.954 286.334 103.18 285.72C103.408 285.099 103.807 284.718 104.376 284.579C104.945 284.44 105.619 284.514 106.398 284.8L108.108 285.43L108.195 285.194C108.502 284.36 108.191 283.772 107.263 283.431C106.681 283.217 105.997 283.207 105.211 283.4L104.925 282.357C105.911 282.032 106.888 282.047 107.855 282.403C108.594 282.675 109.127 283.085 109.452 283.633C109.788 284.176 109.809 284.849 109.514 285.652L108.025 289.699ZM107.563 286.876L107.758 286.346L106.271 285.799C105.32 285.449 104.734 285.573 104.514 286.171C104.401 286.477 104.432 286.757 104.608 287.009C104.786 287.253 105.083 287.452 105.5 287.605C105.925 287.761 106.338 287.779 106.74 287.659C107.141 287.538 107.415 287.278 107.563 286.876Z" fill="white"/>
<path d="M124.474 292.633C124.324 293.252 123.98 293.695 123.442 293.961C122.905 294.219 122.286 294.264 121.586 294.095C121.113 293.981 120.641 293.776 120.169 293.481C119.705 293.188 119.315 292.84 118.999 292.436L119.916 291.532C120.536 292.285 121.2 292.747 121.909 292.918C122.218 292.993 122.479 292.983 122.692 292.888C122.907 292.784 123.041 292.623 123.094 292.403C123.172 292.077 122.812 291.679 122.011 291.21C121.952 291.17 121.907 291.142 121.876 291.126C120.612 290.433 120.084 289.658 120.29 288.803C120.436 288.2 120.784 287.775 121.335 287.529C121.896 287.277 122.551 287.241 123.301 287.422C124.05 287.603 124.706 287.994 125.268 288.595L124.51 289.486C124.065 289.007 123.532 288.694 122.913 288.544C122.587 288.465 122.308 288.462 122.075 288.536C121.844 288.6 121.699 288.751 121.642 288.987C121.591 289.199 121.66 289.379 121.848 289.528C121.977 289.637 122.164 289.755 122.409 289.884C122.662 290.014 122.882 290.136 123.07 290.25C123.258 290.365 123.436 290.485 123.604 290.612C123.78 290.741 123.96 290.905 124.144 291.105C124.514 291.504 124.623 292.013 124.474 292.633Z" fill="white"/>
<path d="M136.371 293.42L135.943 297.015L134.545 296.849L135.646 287.599L137.044 287.765L136.59 291.585C136.838 291.201 137.176 290.916 137.603 290.731C138.038 290.547 138.489 290.482 138.955 290.537C139.704 290.627 140.28 290.927 140.684 291.44C141.095 291.953 141.249 292.642 141.146 293.508L140.662 297.577L139.264 297.411L139.698 293.766C139.843 292.542 139.409 291.87 138.393 291.749C137.911 291.692 137.471 291.804 137.074 292.086C136.679 292.36 136.445 292.804 136.371 293.42Z" fill="white"/>
<path d="M154.243 298.547L152.835 298.522L152.957 291.835L154.365 291.86L154.243 298.547ZM153.069 290.504C152.896 290.325 152.812 290.114 152.817 289.871C152.821 289.628 152.913 289.42 153.092 289.247C153.271 289.074 153.482 288.99 153.725 288.995C153.968 288.999 154.176 289.091 154.349 289.27C154.522 289.449 154.606 289.66 154.601 289.903C154.597 290.146 154.505 290.354 154.326 290.527C154.147 290.7 153.936 290.784 153.693 290.779C153.45 290.775 153.242 290.683 153.069 290.504Z" fill="white"/>
<path d="M164.476 296.733C164.91 297.101 165.432 297.26 166.042 297.21C166.651 297.16 167.136 296.918 167.496 296.485C167.863 296.043 168.02 295.5 167.967 294.857C167.914 294.214 167.671 293.708 167.237 293.34C166.811 292.963 166.293 292.8 165.683 292.85C165.073 292.9 164.585 293.146 164.218 293.588C163.858 294.022 163.705 294.56 163.757 295.203C163.81 295.846 164.05 296.356 164.476 296.733ZM168.569 297.267C167.955 297.982 167.147 298.381 166.145 298.463C165.142 298.545 164.28 298.284 163.557 297.679C162.834 297.066 162.433 296.279 162.354 295.318C162.275 294.358 162.543 293.52 163.157 292.805C163.77 292.082 164.578 291.679 165.58 291.597C166.583 291.515 167.445 291.78 168.168 292.393C168.891 292.998 169.292 293.781 169.371 294.742C169.45 295.702 169.182 296.544 168.569 297.267Z" fill="white"/>
<path d="M181.799 292.924L182.552 296.465L181.175 296.758L179.783 290.216L181.16 289.923L181.414 291.116C181.55 290.667 181.786 290.287 182.123 289.976C182.467 289.662 182.865 289.458 183.316 289.362C184.054 289.205 184.696 289.304 185.243 289.659C185.798 290.012 186.166 290.615 186.347 291.468L187.2 295.476L185.823 295.769L185.059 292.179C184.803 290.974 184.174 290.477 183.174 290.69C182.699 290.791 182.319 291.039 182.034 291.434C181.748 291.82 181.67 292.317 181.799 292.924Z" fill="white"/>
<path d="M208.9 289.239L205.323 281.212L206.678 280.608L208.229 284.088L212.213 282.312L210.663 278.833L212.018 278.229L215.594 286.255L214.239 286.859L212.776 283.575L208.791 285.351L210.255 288.635L208.9 289.239Z" fill="white"/>
<path d="M227.963 278.074C228.517 278.204 229.054 278.107 229.573 277.784C230.093 277.461 230.414 277.025 230.536 276.476C230.661 275.915 230.554 275.36 230.213 274.812C229.873 274.264 229.425 273.925 228.871 273.795C228.32 273.654 227.784 273.745 227.265 274.068C226.745 274.391 226.423 274.833 226.298 275.394C226.175 275.944 226.285 276.493 226.625 277.041C226.966 277.589 227.412 277.934 227.963 278.074ZM231.848 276.682C231.628 277.598 231.091 278.321 230.237 278.852C229.383 279.383 228.496 279.544 227.577 279.335C226.654 279.12 225.938 278.602 225.429 277.784C224.921 276.965 224.776 276.098 224.996 275.181C225.212 274.258 225.747 273.531 226.601 273C227.456 272.47 228.344 272.312 229.268 272.528C230.187 272.736 230.9 273.25 231.409 274.069C231.918 274.887 232.064 275.758 231.848 276.682Z" fill="white"/>
<path d="M244.522 265.145L242.235 262.337L243.327 261.448L247.551 266.634L246.459 267.523L245.689 266.578C245.773 267.039 245.733 267.488 245.569 267.924C245.412 268.354 245.154 268.715 244.797 269.006C244.212 269.483 243.592 269.69 242.937 269.629C242.289 269.563 241.689 269.192 241.139 268.516L238.551 265.338L239.643 264.449L241.961 267.295C242.739 268.251 243.524 268.405 244.317 267.76C244.694 267.453 244.921 267.062 245 266.587C245.073 266.106 244.913 265.626 244.522 265.145Z" fill="white"/>
<path d="M258.592 253.808C259.05 254.251 259.257 254.772 259.214 255.371C259.164 255.965 258.889 256.52 258.388 257.038C258.05 257.388 257.634 257.691 257.14 257.948C256.653 258.199 256.154 258.359 255.646 258.426L255.332 257.178C256.295 257.026 257.031 256.687 257.538 256.163C257.759 255.934 257.883 255.704 257.908 255.473C257.928 255.235 257.857 255.038 257.694 254.881C257.453 254.647 256.927 254.757 256.117 255.209C256.052 255.24 256.005 255.264 255.976 255.282C254.738 256.02 253.802 256.083 253.17 255.471C252.724 255.04 252.535 254.524 252.602 253.925C252.669 253.313 252.97 252.73 253.506 252.176C254.042 251.622 254.712 251.255 255.515 251.076L255.898 252.181C255.26 252.322 254.72 252.621 254.277 253.079C254.044 253.32 253.9 253.559 253.844 253.797C253.783 254.03 253.84 254.23 254.014 254.399C254.171 254.551 254.361 254.583 254.585 254.496C254.744 254.44 254.941 254.339 255.176 254.193C255.416 254.041 255.633 253.913 255.827 253.809C256.021 253.705 256.215 253.613 256.409 253.533C256.609 253.446 256.842 253.374 257.108 253.317C257.64 253.201 258.134 253.365 258.592 253.808Z" fill="white"/>
<path d="M268.948 240.641L265.761 244.803C266.168 245.072 266.615 245.135 267.105 244.992C267.587 244.845 267.989 244.561 268.31 244.142C268.819 243.476 268.997 242.81 268.843 242.143L270.031 242.039C270.185 243.065 269.91 244.037 269.207 244.955C268.636 245.701 267.904 246.148 267.009 246.296C266.112 246.433 265.248 246.183 264.416 245.546C263.578 244.905 263.116 244.129 263.031 243.22C262.946 242.31 263.179 241.496 263.729 240.777C264.285 240.052 264.976 239.605 265.802 239.435C266.622 239.261 267.414 239.466 268.18 240.052L268.948 240.641ZM264.883 244.13L267.214 241.086C266.768 240.745 266.318 240.622 265.865 240.718C265.411 240.814 265.026 241.069 264.711 241.481C264.4 241.887 264.246 242.35 264.249 242.87C264.246 243.384 264.457 243.804 264.883 244.13Z" fill="white"/>
<path d="M277.799 217.871L284.46 221.163L283.803 222.493L277.142 219.201L275.961 221.59L274.744 220.989L277.763 214.88L278.98 215.482L277.799 217.871Z" fill="white"/>
<path d="M287.317 206.131L290.737 207.319L290.275 208.649L281.476 205.591L281.938 204.261L285.571 205.524C285.25 205.199 285.044 204.808 284.954 204.351C284.867 203.886 284.901 203.432 285.055 202.989C285.303 202.276 285.72 201.778 286.307 201.494C286.896 201.202 287.602 201.199 288.426 201.485L292.297 202.831L291.835 204.161L288.367 202.956C287.204 202.551 286.454 202.832 286.118 203.798C285.959 204.257 285.974 204.71 286.164 205.158C286.347 205.603 286.731 205.927 287.317 206.131Z" fill="white"/>
<path d="M294.517 184.66L293.424 189.788C293.907 189.856 294.338 189.721 294.719 189.382C295.091 189.042 295.333 188.613 295.443 188.097C295.617 187.277 295.492 186.599 295.066 186.063L296.095 185.459C296.674 186.32 296.843 187.316 296.602 188.447C296.406 189.365 295.936 190.083 295.192 190.601C294.441 191.11 293.553 191.255 292.528 191.036C291.496 190.816 290.746 190.314 290.279 189.529C289.812 188.744 289.673 187.909 289.862 187.023C290.052 186.13 290.484 185.429 291.158 184.922C291.823 184.412 292.627 184.258 293.57 184.459L294.517 184.66ZM292.342 189.557L293.141 185.807C292.592 185.69 292.133 185.772 291.765 186.054C291.396 186.335 291.158 186.73 291.05 187.238C290.943 187.738 291.003 188.222 291.229 188.69C291.447 189.156 291.818 189.445 292.342 189.557Z" fill="white"/>
<path d="M292.738 162.131L295.151 162.169L295.212 158.272L296.582 158.293L296.521 162.19L300.142 162.246L300.119 163.729L291.332 163.593L291.423 157.735L292.806 157.769L292.738 162.131Z" fill="white"/>
<path d="M299.459 141.208L299.594 142.483L298.707 142.577C299.424 143.057 299.831 143.76 299.93 144.685C300.004 145.376 299.869 145.972 299.526 146.472C299.182 146.964 298.685 147.245 298.035 147.314C297.377 147.384 296.859 147.194 296.483 146.746C296.106 146.297 295.874 145.66 295.787 144.835L295.594 143.022L295.344 143.049C294.46 143.143 294.071 143.681 294.176 144.665C294.241 145.282 294.534 145.899 295.055 146.518L294.247 147.236C293.519 146.496 293.101 145.614 292.992 144.589C292.908 143.805 293.04 143.146 293.388 142.612C293.727 142.07 294.321 141.754 295.171 141.664L299.459 141.208ZM297.133 142.871L296.57 142.931L296.738 144.506C296.845 145.514 297.215 145.985 297.849 145.918C298.174 145.883 298.41 145.731 298.559 145.463C298.699 145.195 298.745 144.84 298.698 144.399C298.651 143.949 298.484 143.57 298.198 143.263C297.913 142.957 297.558 142.826 297.133 142.871Z" fill="white"/>
<path d="M294.812 125.159C295.433 125.019 295.983 125.132 296.46 125.497C296.929 125.863 297.243 126.398 297.401 127.102C297.508 127.576 297.533 128.09 297.478 128.644C297.42 129.189 297.28 129.693 297.058 130.156L295.842 129.734C296.243 128.844 296.363 128.044 296.203 127.333C296.133 127.022 296.009 126.792 295.829 126.644C295.641 126.497 295.437 126.448 295.216 126.498C294.889 126.572 294.693 127.071 294.626 127.997C294.616 128.068 294.611 128.121 294.61 128.155C294.548 129.595 294.087 130.412 293.229 130.605C292.624 130.741 292.089 130.617 291.624 130.232C291.15 129.841 290.827 129.269 290.658 128.517C290.489 127.764 290.549 127.003 290.84 126.233L291.974 126.519C291.742 127.13 291.696 127.746 291.836 128.367C291.909 128.694 292.031 128.946 292.199 129.123C292.36 129.302 292.559 129.364 292.796 129.311C293.008 129.263 293.14 129.122 293.19 128.887C293.23 128.723 293.254 128.503 293.26 128.227C293.265 127.943 293.277 127.691 293.297 127.472C293.316 127.252 293.345 127.04 293.385 126.833C293.422 126.619 293.49 126.384 293.587 126.13C293.782 125.623 294.19 125.299 294.812 125.159Z" fill="white"/>
<path d="M290.254 114.141L293.667 112.934L294.137 114.261L285.354 117.367L284.885 116.04L288.512 114.757C288.057 114.704 287.653 114.527 287.297 114.226C286.939 113.918 286.682 113.542 286.525 113.099C286.274 112.388 286.289 111.738 286.57 111.15C286.848 110.554 287.398 110.111 288.219 109.82L292.083 108.454L292.553 109.781L289.092 111.005C287.93 111.416 287.52 112.103 287.861 113.067C288.023 113.525 288.318 113.87 288.746 114.101C289.167 114.334 289.669 114.348 290.254 114.141Z" fill="white"/>
<path d="M286.944 95.8456L287.544 97.1195L281.493 99.969L280.893 98.6952L286.944 95.8456ZM280.25 100.457C280.166 100.691 280.014 100.86 279.794 100.964C279.574 101.067 279.347 101.077 279.113 100.993C278.878 100.909 278.71 100.756 278.606 100.537C278.502 100.317 278.493 100.09 278.577 99.8554C278.661 99.6212 278.813 99.4523 279.033 99.3488C279.253 99.2452 279.48 99.2356 279.714 99.3198C279.949 99.404 280.117 99.5561 280.221 99.776C280.325 99.9959 280.334 100.223 280.25 100.457Z" fill="white"/>
<path d="M280.789 87.4712C280.927 86.9193 280.839 86.381 280.524 85.8564C280.209 85.3318 279.778 85.004 279.23 84.8732C278.671 84.7395 278.115 84.8387 277.562 85.1707C277.008 85.5027 276.662 85.9446 276.524 86.4966C276.375 87.0456 276.458 87.5825 276.772 88.1071C277.087 88.6317 277.524 88.9609 278.083 89.0946C278.631 89.2254 279.181 89.1248 279.735 88.7928C280.288 88.4608 280.639 88.0203 280.789 87.4712ZM279.457 83.5645C280.369 83.7989 281.084 84.3472 281.602 85.2096C282.119 86.072 282.267 86.961 282.044 87.8766C281.814 88.7965 281.285 89.5043 280.459 90.0002C279.633 90.496 278.763 90.6268 277.85 90.3925C276.93 90.1625 276.212 89.6163 275.694 88.7539C275.177 87.8914 275.033 87.0003 275.263 86.0804C275.486 85.1649 276.011 84.4591 276.837 83.9633C277.664 83.4675 278.537 83.3345 279.457 83.5645Z" fill="white"/>
<path d="M269.708 73.6225L272.55 71.38L273.422 72.4854L268.171 76.6279L267.299 75.5225L268.257 74.7672C267.794 74.8439 267.349 74.8003 266.921 74.6364C266.487 74.4659 266.128 74.1997 265.842 73.8378C265.375 73.2457 265.18 72.6259 265.256 71.9785C265.327 71.3245 265.705 70.7276 266.389 70.1877L269.607 67.6493L270.479 68.7547L267.597 71.0284C266.63 71.7915 266.463 72.5744 267.096 73.3771C267.397 73.7587 267.788 73.9898 268.267 74.0703C268.741 74.1559 269.221 74.0067 269.708 73.6225Z" fill="white"/>
<path d="M254.411 50.9492L248.796 57.7083L247.655 56.7604L250.089 53.8305L246.733 51.0428L244.299 53.9728L243.158 53.0248L248.774 46.2657L249.915 47.2136L247.617 49.9792L250.973 52.7668L253.27 50.0012L254.411 50.9492Z" fill="white"/>
<path d="M235.964 38.7939C235.835 38.2398 235.511 37.8012 234.992 37.478C234.472 37.1548 233.939 37.06 233.392 37.1935C232.833 37.3297 232.384 37.6717 232.043 38.2197C231.702 38.7676 231.596 39.3186 231.725 39.8727C231.843 40.4295 232.161 40.8695 232.68 41.1927C233.2 41.5158 233.739 41.6093 234.297 41.4732C234.844 41.3397 235.288 40.9989 235.629 40.451C235.97 39.9031 236.082 39.3507 235.964 38.7939ZM232.996 35.9257C233.915 35.7177 234.802 35.8793 235.656 36.4106C236.51 36.9419 237.046 37.6657 237.266 38.582C237.481 39.5055 237.334 40.3764 236.825 41.1948C236.316 42.0131 235.602 42.5263 234.683 42.7343C233.759 42.9494 232.87 42.7914 232.016 42.2601C231.162 41.7288 230.628 41.0014 230.413 40.078C230.193 39.1616 230.338 38.2943 230.847 37.4759C231.356 36.6575 232.073 36.1408 232.996 35.9257Z" fill="white"/>
<path d="M217.042 29.6656L215.536 32.9581L214.256 32.3725L217.038 26.2904L218.318 26.8761L217.811 27.985C218.187 27.7057 218.607 27.543 219.071 27.4969C219.527 27.4473 219.964 27.5184 220.383 27.7101C221.069 28.0238 221.53 28.4879 221.765 29.1023C221.992 29.7132 221.925 30.415 221.562 31.2076L219.858 34.9346L218.577 34.349L220.104 31.0107C220.617 29.8903 220.408 29.1175 219.478 28.6922C219.036 28.49 218.585 28.4588 218.125 28.5986C217.661 28.7459 217.3 29.1016 217.042 29.6656Z" fill="white"/>
<path d="M200.65 22.0641C200.844 21.4576 201.22 21.0412 201.777 20.8149C202.331 20.5966 202.951 20.5976 203.637 20.8178C204.1 20.9663 204.556 21.205 205.005 21.5339C205.446 21.8603 205.809 22.2365 206.095 22.6627L205.114 23.4967C204.552 22.7 203.923 22.1902 203.229 21.9674C202.925 21.8701 202.664 21.8611 202.445 21.9405C202.224 22.0278 202.078 22.1792 202.009 22.3946C201.907 22.7138 202.237 23.1368 203.001 23.6636C203.057 23.7081 203.1 23.7394 203.13 23.7576C204.339 24.5418 204.809 25.3528 204.541 26.1907C204.351 26.7813 203.973 27.1791 203.405 27.3843C202.827 27.5949 202.171 27.5824 201.437 27.3468C200.702 27.1113 200.077 26.673 199.561 26.0321L200.383 25.1999C200.791 25.7095 201.299 26.0616 201.905 26.2562C202.225 26.3586 202.503 26.382 202.741 26.3263C202.976 26.2786 203.131 26.139 203.205 25.9076C203.272 25.7001 203.217 25.5152 203.04 25.3529C202.92 25.2349 202.742 25.1031 202.507 24.9573C202.264 24.809 202.053 24.6709 201.874 24.543C201.695 24.4152 201.527 24.2819 201.369 24.1432C201.203 24.0019 201.035 23.8249 200.866 23.6121C200.527 23.1866 200.455 22.6706 200.65 22.0641Z" fill="white"/>
<path d="M184.259 18.6031L189.402 19.6191C189.463 19.1358 189.322 18.7063 188.977 18.3307C188.631 17.9633 188.199 17.7285 187.681 17.6261C186.859 17.4637 186.183 17.5992 185.653 18.0327L185.035 17.0135C185.886 16.4214 186.879 16.2375 188.014 16.4616C188.935 16.6436 189.66 17.1029 190.189 17.8397C190.709 18.583 190.867 19.4686 190.664 20.4963C190.459 21.5323 189.968 22.2895 189.19 22.768C188.412 23.2465 187.579 23.398 186.691 23.2226C185.795 23.0455 185.088 22.6239 184.57 21.9578C184.051 21.2999 183.885 20.4982 184.072 19.5527L184.259 18.6031ZM189.188 20.7044L185.426 19.9613C185.317 20.5121 185.406 20.9697 185.693 21.3339C185.98 21.6981 186.378 21.9306 186.888 22.0313C187.39 22.1304 187.873 22.0635 188.337 21.8307C188.8 21.6061 189.084 21.2306 189.188 20.7044Z" fill="white"/>
</svg>
