<svg width="21" height="21" viewBox="0 0 21 21" fill="none" xmlns="http://www.w3.org/2000/svg">
<circle cx="10.5715" cy="10.5238" r="9.95238" fill="#F1F6FF"/>
<g clip-path="url(#clip0_14_140)">
<path d="M12.3882 7.73464C12.2968 7.73464 12.2075 7.76173 12.1316 7.81249C12.0556 7.86325 11.9964 7.93539 11.9614 8.01979C11.9265 8.1042 11.9173 8.19708 11.9352 8.28669C11.953 8.37629 11.997 8.45859 12.0616 8.5232C12.1262 8.5878 12.2085 8.63179 12.2981 8.64962C12.3877 8.66744 12.4806 8.65829 12.565 8.62333C12.6494 8.58837 12.7215 8.52916 12.7723 8.4532C12.823 8.37723 12.8501 8.28793 12.8501 8.19657C12.8501 8.07406 12.8015 7.95657 12.7148 7.86994C12.6282 7.78331 12.5107 7.73464 12.3882 7.73464Z" fill="#2E526B"/>
<path d="M10.3406 8.32759C9.95754 8.32759 9.58304 8.44123 9.26454 8.65411C8.94603 8.867 8.69783 9.16957 8.55132 9.52356C8.40481 9.87754 8.36659 10.267 8.44149 10.6427C8.5164 11.0184 8.70105 11.3635 8.9721 11.6342C9.24315 11.905 9.58842 12.0892 9.96421 12.1637C10.34 12.2382 10.7294 12.1995 11.0833 12.0526C11.4371 11.9057 11.7394 11.6571 11.9519 11.3384C12.1644 11.0196 12.2776 10.645 12.2772 10.2619C12.2766 9.74869 12.0723 9.25669 11.7092 8.894C11.3461 8.53131 10.8539 8.32759 10.3406 8.32759ZM10.3406 11.5033C10.095 11.5038 9.85479 11.4313 9.65035 11.2952C9.44591 11.159 9.28644 10.9653 9.19214 10.7385C9.09784 10.5117 9.07294 10.262 9.12059 10.0211C9.16824 9.78012 9.2863 9.55871 9.45982 9.38487C9.63335 9.21103 9.85455 9.09258 10.0954 9.0445C10.3363 8.99642 10.586 9.02087 10.813 9.11477C11.0399 9.20866 11.234 9.36778 11.3705 9.57197C11.507 9.77617 11.5798 10.0163 11.5798 10.2619C11.5807 10.4253 11.5493 10.5873 11.4875 10.7385C11.4256 10.8897 11.3345 11.0273 11.2194 11.1432C11.1043 11.2592 10.9674 11.3513 10.8166 11.4142C10.6658 11.4771 10.504 11.5097 10.3406 11.51V11.5033Z" fill="#2E526B"/>
<path d="M11.8841 14.1927H8.73946C8.11393 14.1915 7.51438 13.9424 7.07227 13.4998C6.63016 13.0573 6.38157 12.4575 6.38098 11.832V8.69403C6.38157 8.06849 6.63016 7.46872 7.07227 7.02619C7.51438 6.58367 8.11393 6.3345 8.73946 6.33333H11.8841C12.51 6.33392 13.1101 6.58282 13.5527 7.02541C13.9953 7.468 14.2442 8.06811 14.2448 8.69403V11.832C14.2442 12.4579 13.9953 13.058 13.5527 13.5006C13.1101 13.9432 12.51 14.1921 11.8841 14.1927ZM8.73946 7.06841C8.30985 7.06958 7.89819 7.24076 7.59441 7.54453C7.29063 7.84831 7.11946 8.25998 7.11828 8.68958V11.8276C7.11946 12.2572 7.29063 12.6688 7.59441 12.9726C7.89819 13.2764 8.30985 13.4476 8.73946 13.4487H11.8841C12.3137 13.4476 12.7254 13.2764 13.0291 12.9726C13.3329 12.6688 13.5041 12.2572 13.5053 11.8276V8.69403C13.5053 8.26365 13.3346 7.85084 13.0307 7.54611C12.7268 7.24137 12.3145 7.06958 11.8841 7.06841H8.73946Z" fill="#2E526B"/>
</g>
<defs>
<clipPath id="clip0_14_140">
<rect width="7.85714" height="7.85714" fill="white" transform="translate(6.38098 6.33333)"/>
</clipPath>
</defs>
</svg>
