<svg width="34" height="34" viewBox="0 0 34 34" fill="none" xmlns="http://www.w3.org/2000/svg">
<g clip-path="url(#clip0_14_128)" filter="url(#filter0_d_14_128)">
<path fill-rule="evenodd" clip-rule="evenodd" d="M17.1428 23.5714C20.0602 23.5714 22.8581 22.4125 24.921 20.3496C26.9839 18.2867 28.1428 15.4888 28.1428 12.5714C28.1428 9.65405 26.9839 6.85615 24.921 4.79325C22.8581 2.73035 20.0602 1.57143 17.1428 1.57143C14.2255 1.57143 11.4276 2.73035 9.36467 4.79325C7.30176 6.85615 6.14284 9.65405 6.14284 12.5714C6.14284 15.4888 7.30176 18.2867 9.36467 20.3496C11.4276 22.4125 14.2255 23.5714 17.1428 23.5714ZM17.1428 25.1429C20.477 25.1429 23.6746 23.8184 26.0322 21.4608C28.3898 19.1032 29.7143 15.9056 29.7143 12.5714C29.7143 9.23728 28.3898 6.03969 26.0322 3.68209C23.6746 1.32449 20.477 0 17.1428 0C13.8087 0 10.6111 1.32449 8.2535 3.68209C5.8959 6.03969 4.57141 9.23728 4.57141 12.5714C4.57141 15.9056 5.8959 19.1032 8.2535 21.4608C10.6111 23.8184 13.8087 25.1429 17.1428 25.1429Z" fill="white"/>
<path fill-rule="evenodd" clip-rule="evenodd" d="M16.5865 17.842C16.5134 17.769 16.4553 17.6823 16.4157 17.5869C16.3761 17.4914 16.3557 17.3891 16.3557 17.2857C16.3557 17.1824 16.3761 17.08 16.4157 16.9846C16.4553 16.8891 16.5134 16.8024 16.5865 16.7294L20.7461 12.5714L16.5865 8.41343C16.5135 8.34038 16.4555 8.25365 16.416 8.1582C16.3765 8.06275 16.3561 7.96045 16.3561 7.85714C16.3561 7.75383 16.3765 7.65153 16.416 7.55608C16.4555 7.46063 16.5135 7.37391 16.5865 7.30086C16.6596 7.2278 16.7463 7.16985 16.8418 7.13032C16.9372 7.09078 17.0395 7.07043 17.1428 7.07043C17.2461 7.07043 17.3484 7.09078 17.4439 7.13032C17.5393 7.16985 17.6261 7.2278 17.6991 7.30086L22.4134 12.0151C22.4866 12.0881 22.5446 12.1748 22.5842 12.2703C22.6238 12.3657 22.6442 12.4681 22.6442 12.5714C22.6442 12.6748 22.6238 12.7771 22.5842 12.8726C22.5446 12.968 22.4866 13.0547 22.4134 13.1277L17.6991 17.842C17.6261 17.9152 17.5394 17.9732 17.444 18.0128C17.3485 18.0524 17.2462 18.0728 17.1428 18.0728C17.0395 18.0728 16.9371 18.0524 16.8417 18.0128C16.7462 17.9732 16.6595 17.9152 16.5865 17.842Z" fill="white"/>
<path fill-rule="evenodd" clip-rule="evenodd" d="M11.6428 12.5714C11.6428 12.363 11.7256 12.1632 11.873 12.0158C12.0203 11.8685 12.2202 11.7857 12.4285 11.7857H20.2857C20.4941 11.7857 20.6939 11.8685 20.8413 12.0158C20.9886 12.1632 21.0714 12.363 21.0714 12.5714C21.0714 12.7798 20.9886 12.9797 20.8413 13.127C20.6939 13.2744 20.4941 13.3571 20.2857 13.3571H12.4285C12.2202 13.3571 12.0203 13.2744 11.873 13.127C11.7256 12.9797 11.6428 12.7798 11.6428 12.5714Z" fill="white"/>
</g>
<defs>
<filter id="filter0_d_14_128" x="0.571411" y="0" width="33.1428" height="33.1429" filterUnits="userSpaceOnUse" color-interpolation-filters="sRGB">
<feFlood flood-opacity="0" result="BackgroundImageFix"/>
<feColorMatrix in="SourceAlpha" type="matrix" values="0 0 0 0 0 0 0 0 0 0 0 0 0 0 0 0 0 0 127 0" result="hardAlpha"/>
<feOffset dy="4"/>
<feGaussianBlur stdDeviation="2"/>
<feComposite in2="hardAlpha" operator="out"/>
<feColorMatrix type="matrix" values="0 0 0 0 0 0 0 0 0 0 0 0 0 0 0 0 0 0 0.25 0"/>
<feBlend mode="normal" in2="BackgroundImageFix" result="effect1_dropShadow_14_128"/>
<feBlend mode="normal" in="SourceGraphic" in2="effect1_dropShadow_14_128" result="shape"/>
</filter>
<clipPath id="clip0_14_128">
<rect width="25.1429" height="25.1429" fill="white" transform="translate(4.57141)"/>
</clipPath>
</defs>
</svg>
