<svg width="21" height="21" viewBox="0 0 21 21" fill="none" xmlns="http://www.w3.org/2000/svg">
<circle cx="10.2856" cy="10.5238" r="9.95238" fill="#F1F6FF"/>
<g clip-path="url(#clip0_14_144)">
<path d="M14.4432 8.19701C14.1896 8.31195 13.923 8.39216 13.65 8.43567C13.7779 8.41258 13.9644 8.16814 14.0393 8.06998C14.1569 7.9202 14.2468 7.7485 14.3043 7.56379C14.3043 7.55032 14.3153 7.53107 14.3043 7.52145C14.2978 7.51806 14.2906 7.51629 14.2833 7.51629C14.276 7.51629 14.2688 7.51806 14.2623 7.52145C13.9643 7.69054 13.6475 7.81985 13.3192 7.90639C13.3079 7.90989 13.2959 7.90994 13.2846 7.90654C13.2732 7.90313 13.2631 7.8964 13.2552 7.88714C13.2302 7.85531 13.2026 7.8257 13.173 7.79861C13.0362 7.67599 12.882 7.57664 12.7161 7.50413C12.4942 7.4097 12.2548 7.36956 12.0161 7.38672C11.7845 7.4009 11.5584 7.46649 11.3526 7.57919C11.146 7.69295 10.9637 7.85017 10.8171 8.04111C10.6643 8.23786 10.5551 8.46798 10.4973 8.71475C10.4465 8.94852 10.4403 9.19057 10.479 9.42688C10.479 9.4673 10.479 9.47308 10.4479 9.4673C9.15393 9.27484 8.07196 8.77634 7.2093 7.73509C7.17275 7.69082 7.15264 7.69082 7.12157 7.73509C6.73959 8.33752 6.92418 9.30371 7.4012 9.77718C7.46399 9.84537 7.53051 9.90963 7.60042 9.96965C7.38197 9.95 7.16945 9.88456 6.97535 9.77718C6.93697 9.75216 6.9187 9.76755 6.91504 9.81182C6.91272 9.8762 6.91639 9.94066 6.92601 10.0043C6.96398 10.311 7.07856 10.6016 7.25805 10.8464C7.43755 11.0912 7.67552 11.2815 7.94767 11.3978C8.01441 11.4282 8.08435 11.4502 8.15603 11.4632C7.95446 11.5059 7.74756 11.513 7.54376 11.4844C7.49807 11.4844 7.48162 11.4978 7.49807 11.544C7.76856 12.3139 8.34976 12.5468 8.77744 12.6796C8.83592 12.6892 8.89441 12.6892 8.9602 12.7046C8.9602 12.7046 8.9602 12.7046 8.9602 12.7142C8.81582 12.9471 8.31321 13.1203 8.0811 13.205C7.65325 13.3656 7.19758 13.4273 6.74507 13.386C6.67379 13.3744 6.65917 13.3744 6.63906 13.386C6.61896 13.3975 6.63907 13.4167 6.65917 13.436C6.75055 13.4995 6.84194 13.5553 6.93697 13.6092C7.22055 13.7693 7.52035 13.8952 7.83071 13.9845C9.43357 14.4522 11.2411 14.1096 12.4456 12.849C13.3905 11.8597 13.7249 10.4951 13.7249 9.12856C13.7249 9.07467 13.7852 9.0458 13.8218 9.01693C14.0613 8.82117 14.2725 8.5897 14.4487 8.32982C14.4769 8.29275 14.4918 8.24641 14.4907 8.19894C14.4761 8.17584 14.4761 8.18162 14.4432 8.19701Z" fill="#2E526B"/>
</g>
<defs>
<clipPath id="clip0_14_144">
<rect width="7.85714" height="6.80952" fill="white" transform="translate(6.61902 7.38095)"/>
</clipPath>
</defs>
</svg>
