<svg width="33" height="415" viewBox="0 0 33 415" fill="none" xmlns="http://www.w3.org/2000/svg">
<path d="M32 409.061H6.14317L8.97126 406.233V414.717H3.71909V402.516H32V409.061ZM32.4848 370.332C32.4848 372.649 31.9192 374.723 30.788 376.554C29.6298 378.386 27.9599 379.827 25.7782 380.877C23.5965 381.927 20.957 382.453 17.8595 382.453C14.7621 382.453 12.1226 381.927 9.9409 380.877C7.75922 379.827 6.10277 378.386 4.97154 376.554C3.81337 374.723 3.23428 372.649 3.23428 370.332C3.23428 367.989 3.81337 365.915 4.97154 364.11C6.10277 362.279 7.75922 360.838 9.9409 359.788C12.1226 358.737 14.7621 358.212 17.8595 358.212C20.957 358.212 23.5965 358.737 25.7782 359.788C27.9599 360.838 29.6298 362.279 30.788 364.11C31.9192 365.915 32.4848 367.989 32.4848 370.332ZM26.9498 370.332C26.9498 369.228 26.6401 368.272 26.0206 367.464C25.4011 366.629 24.418 365.982 23.0713 365.525C21.7246 365.04 19.9873 364.797 17.8595 364.797C15.7317 364.797 13.9945 365.04 12.6478 365.525C11.3011 365.982 10.318 366.629 9.69849 367.464C9.079 368.272 8.76926 369.228 8.76926 370.332C8.76926 371.41 9.079 372.366 9.69849 373.201C10.318 374.009 11.3011 374.655 12.6478 375.14C13.9945 375.598 15.7317 375.827 17.8595 375.827C19.9873 375.827 21.7246 375.598 23.0713 375.14C24.418 374.655 25.4011 374.009 26.0206 373.201C26.6401 372.366 26.9498 371.41 26.9498 370.332ZM32.4848 327.761C32.4848 330.077 31.9192 332.151 30.788 333.983C29.6298 335.814 27.9599 337.255 25.7782 338.306C23.5965 339.356 20.957 339.881 17.8595 339.881C14.7621 339.881 12.1226 339.356 9.9409 338.306C7.75922 337.255 6.10277 335.814 4.97154 333.983C3.81337 332.151 3.23428 330.077 3.23428 327.761C3.23428 325.418 3.81337 323.344 4.97154 321.539C6.10277 319.708 7.75922 318.267 9.9409 317.216C12.1226 316.166 14.7621 315.641 17.8595 315.641C20.957 315.641 23.5965 316.166 25.7782 317.216C27.9599 318.267 29.6298 319.708 30.788 321.539C31.9192 323.344 32.4848 325.418 32.4848 327.761ZM26.9498 327.761C26.9498 326.657 26.6401 325.701 26.0206 324.892C25.4011 324.058 24.418 323.411 23.0713 322.953C21.7246 322.468 19.9873 322.226 17.8595 322.226C15.7317 322.226 13.9945 322.468 12.6478 322.953C11.3011 323.411 10.318 324.058 9.69849 324.892C9.079 325.701 8.76926 326.657 8.76926 327.761C8.76926 328.838 9.079 329.795 9.69849 330.629C10.318 331.438 11.3011 332.084 12.6478 332.569C13.9945 333.027 15.7317 333.256 17.8595 333.256C19.9873 333.256 21.7246 333.027 23.0713 332.569C24.418 332.084 25.4011 331.438 26.0206 330.629C26.6401 329.795 26.9498 328.838 26.9498 327.761ZM32 293.23L3.71909 273.918V269.11L32 288.422V293.23ZM18.9908 290.765C18.9908 292.139 18.681 293.351 18.0616 294.401C17.4151 295.452 16.5128 296.287 15.3547 296.906C14.1696 297.499 12.7825 297.795 11.1933 297.795C9.60422 297.795 8.23057 297.499 7.0724 296.906C5.91423 296.287 5.01194 295.452 4.36552 294.401C3.7191 293.351 3.39589 292.139 3.39589 290.765C3.39589 289.391 3.7191 288.179 4.36552 287.129C5.01194 286.079 5.91423 285.257 7.0724 284.664C8.23057 284.072 9.60422 283.776 11.1933 283.776C12.7825 283.776 14.1696 284.072 15.3547 284.664C16.5128 285.257 17.4151 286.079 18.0616 287.129C18.681 288.179 18.9908 289.391 18.9908 290.765ZM15.6779 290.765C15.6779 289.876 15.3143 289.162 14.587 288.624C13.8329 288.085 12.7016 287.816 11.1933 287.816C9.68502 287.816 8.56725 288.085 7.84003 288.624C7.08587 289.162 6.70879 289.876 6.70879 290.765C6.70879 291.627 7.08587 292.341 7.84003 292.906C8.56725 293.445 9.68502 293.714 11.1933 293.714C12.6747 293.714 13.7925 293.445 14.5466 292.906C15.3008 292.341 15.6779 291.627 15.6779 290.765ZM32.3232 271.574C32.3232 272.921 32.0135 274.133 31.394 275.211C30.7476 276.261 29.8453 277.083 28.6871 277.675C27.502 278.268 26.1149 278.564 24.5258 278.564C22.9366 278.564 21.563 278.268 20.4048 277.675C19.2467 277.083 18.3444 276.261 17.6979 275.211C17.0515 274.133 16.7283 272.921 16.7283 271.574C16.7283 270.174 17.0515 268.948 17.6979 267.898C18.3444 266.848 19.2467 266.026 20.4048 265.433C21.563 264.841 22.9366 264.545 24.5258 264.545C26.1149 264.545 27.502 264.841 28.6871 265.433C29.8453 266.026 30.7476 266.848 31.394 267.898C32.0135 268.948 32.3232 270.174 32.3232 271.574ZM29.0103 271.574C29.0103 270.686 28.6467 269.972 27.9195 269.433C27.1653 268.895 26.0341 268.625 24.5258 268.625C23.0444 268.625 21.9266 268.895 21.1725 269.433C20.4183 269.972 20.0412 270.686 20.0412 271.574C20.0412 272.436 20.4183 273.15 21.1725 273.716C21.8997 274.254 23.0174 274.524 24.5258 274.524C26.0341 274.524 27.1653 274.254 27.9195 273.716C28.6467 273.15 29.0103 272.436 29.0103 271.574ZM9.9409 190.968C9.9409 189.244 10.291 187.722 10.9913 186.402C11.6647 185.056 12.7151 184.005 14.1426 183.251C15.5432 182.47 17.3478 182.079 19.5564 182.079H32V188.382H20.526C18.7753 188.382 17.4825 188.746 16.6475 189.473C15.8125 190.2 15.3951 191.223 15.3951 192.543C15.3951 193.459 15.6105 194.28 16.0415 195.008C16.4455 195.735 17.065 196.301 17.8999 196.705C18.7349 197.109 19.7988 197.311 21.0917 197.311H32V203.613H20.526C18.7753 203.613 17.4825 203.977 16.6475 204.704C15.8125 205.404 15.3951 206.414 15.3951 207.734C15.3951 208.65 15.6105 209.471 16.0415 210.199C16.4455 210.926 17.065 211.491 17.8999 211.895C18.7349 212.299 19.7988 212.501 21.0917 212.501H32V218.804H10.2641V212.784H16.2031L14.4658 213.916C12.9845 213.161 11.8667 212.097 11.1125 210.724C10.3314 209.323 9.9409 207.734 9.9409 205.956C9.9409 203.963 10.4526 202.226 11.4761 200.745C12.4727 199.236 14.008 198.24 16.0819 197.755L15.4759 199.977C13.779 199.25 12.4323 198.092 11.4357 196.503C10.4392 194.887 9.9409 193.042 9.9409 190.968ZM32.3232 150.779C32.3232 153.095 31.8384 155.156 30.8688 156.96C29.8991 158.738 28.5794 160.152 26.9094 161.203C25.2126 162.226 23.2868 162.738 21.1321 162.738C18.9504 162.738 17.0246 162.226 15.3547 161.203C13.6578 160.152 12.338 158.738 11.3953 156.96C10.4257 155.156 9.9409 153.095 9.9409 150.779C9.9409 148.49 10.4257 146.443 11.3953 144.638C12.338 142.833 13.6443 141.419 15.3143 140.396C16.9842 139.372 18.9234 138.861 21.1321 138.861C23.2868 138.861 25.2126 139.372 26.9094 140.396C28.5794 141.419 29.8991 142.833 30.8688 144.638C31.8384 146.443 32.3232 148.49 32.3232 150.779ZM27.1518 150.779C27.1518 149.729 26.9094 148.786 26.4246 147.951C25.9398 147.116 25.253 146.456 24.3642 145.971C23.4484 145.486 22.371 145.244 21.1321 145.244C19.8661 145.244 18.7888 145.486 17.8999 145.971C17.0111 146.456 16.3243 147.116 15.8395 147.951C15.3547 148.786 15.1123 149.729 15.1123 150.779C15.1123 151.829 15.3547 152.772 15.8395 153.607C16.3243 154.442 17.0111 155.115 17.8999 155.627C18.7888 156.112 19.8661 156.354 21.1321 156.354C22.371 156.354 23.4484 156.112 24.3642 155.627C25.253 155.115 25.9398 154.442 26.4246 153.607C26.9094 152.772 27.1518 151.829 27.1518 150.779ZM32.3232 106.65C32.3232 108.562 31.9192 110.205 31.1112 111.579C30.3031 112.952 29.0776 114.003 27.4347 114.73C25.7647 115.457 23.6639 115.821 21.1321 115.821C18.5733 115.821 16.4724 115.444 14.8295 114.69C13.1865 113.909 11.961 112.831 11.1529 111.458C10.3449 110.084 9.9409 108.481 9.9409 106.65C9.9409 104.603 10.3988 102.771 11.3145 101.155C12.2303 99.5122 13.5231 98.2194 15.1931 97.2767C16.863 96.307 18.8426 95.8222 21.1321 95.8222C23.3945 95.8222 25.3607 96.307 27.0306 97.2767C28.7006 98.2194 30.0069 99.5122 30.9496 101.155C31.8653 102.771 32.3232 104.603 32.3232 106.65ZM32 119.497H2.02224V113.195H14.6678L21.0917 113.599L27.5559 113.478H32V119.497ZM27.1518 107.741C27.1518 106.69 26.9094 105.761 26.4246 104.953C25.9398 104.118 25.253 103.458 24.3642 102.973C23.4484 102.462 22.371 102.206 21.1321 102.206C19.8661 102.206 18.7888 102.462 17.8999 102.973C17.0111 103.458 16.3243 104.118 15.8395 104.953C15.3547 105.761 15.1123 106.69 15.1123 107.741C15.1123 108.791 15.3547 109.734 15.8395 110.569C16.3243 111.404 17.0111 112.064 17.8999 112.548C18.7888 113.033 19.8661 113.276 21.1321 113.276C22.371 113.276 23.4484 113.033 24.3642 112.548C25.253 112.064 25.9398 111.404 26.4246 110.569C26.9094 109.734 27.1518 108.791 27.1518 107.741ZM32 76.4526H10.2641V70.15H32V76.4526ZM7.23401 73.3013C7.23401 74.4595 6.89733 75.4022 6.22398 76.1294C5.55062 76.8567 4.71566 77.2203 3.71909 77.2203C2.72253 77.2203 1.88757 76.8567 1.21422 76.1294C0.54086 75.4022 0.204182 74.4595 0.204182 73.3013C0.204182 72.1432 0.527393 71.2005 1.17381 70.4733C1.7933 69.746 2.60133 69.3824 3.59789 69.3824C4.64833 69.3824 5.52369 69.746 6.22398 70.4733C6.89733 71.1735 7.23401 72.1162 7.23401 73.3013ZM32 49.1502H2.02224V42.8476H32V49.1502ZM32.3232 11.0606C32.3232 13.5386 31.8384 15.7203 30.8688 17.6057C29.8991 19.4641 28.5794 20.9051 26.9094 21.9286C25.2126 22.9521 23.2868 23.4638 21.1321 23.4638C18.9504 23.4638 17.0246 22.9656 15.3547 21.969C13.6578 20.9455 12.338 19.5584 11.3953 17.8077C10.4257 16.0569 9.9409 14.0773 9.9409 11.8687C9.9409 9.74087 10.3988 7.82854 11.3145 6.13169C12.2034 4.4079 13.4962 3.04772 15.1931 2.05116C16.863 1.05459 18.8696 0.556309 21.2129 0.556309C21.4553 0.556309 21.7381 0.569776 22.0613 0.596709C22.3576 0.623645 22.6404 0.650579 22.9097 0.677513V18.3329H19.2332V3.99042L20.324 6.4145C19.1928 6.4145 18.2097 6.64344 17.3747 7.10132C16.5398 7.5592 15.8934 8.19215 15.4355 9.00018C14.9507 9.80821 14.7082 10.7509 14.7082 11.8283C14.7082 12.9056 14.9507 13.8618 15.4355 14.6968C15.8934 15.5048 16.5532 16.1377 17.4151 16.5956C18.2501 17.0535 19.2467 17.2824 20.4048 17.2824H21.3745C22.5596 17.2824 23.61 17.0266 24.5258 16.5148C25.4146 15.9761 26.1014 15.2354 26.5862 14.2927C27.0441 13.3231 27.273 12.1919 27.273 10.899C27.273 9.74087 27.098 8.73084 26.7478 7.86894C26.3977 6.98011 25.8725 6.17209 25.1722 5.44487L28.8083 2.09156C29.9395 3.08812 30.8149 4.34056 31.4344 5.84888C32.0269 7.35719 32.3232 9.09445 32.3232 11.0606Z" fill="white"/>
</svg>
