<svg width="80" height="75" viewBox="0 0 80 75" fill="none" xmlns="http://www.w3.org/2000/svg">
<path d="M66.5 61C66.5 62.0376 65.9922 63.2695 64.558 64.6454C63.1172 66.0278 60.9002 67.3879 57.9551 68.583C52.0779 70.9679 43.7865 72.5 34.5 72.5C25.2135 72.5 16.9221 70.9679 11.0449 68.583C8.09983 67.3879 5.88279 66.0278 4.44196 64.6454C3.00778 63.2695 2.5 62.0376 2.5 61C2.5 59.9624 3.00778 58.7305 4.44196 57.3546C5.88279 55.9722 8.09983 54.6121 11.0449 53.417C16.9221 51.0321 25.2135 49.5 34.5 49.5C43.7865 49.5 52.0779 51.0321 57.9551 53.417C60.9002 54.6121 63.1172 55.9722 64.558 57.3546C65.9922 58.7305 66.5 59.9624 66.5 61Z" stroke="black" stroke-width="5"/>
<path d="M66.5 37.5C66.5 38.434 66.0262 39.592 64.5911 40.9197C63.153 42.2501 60.935 43.5632 57.9842 44.7178C52.098 47.0211 43.7959 48.5 34.5 48.5C25.2041 48.5 16.902 47.0211 11.0158 44.7178C8.06498 43.5632 5.84695 42.2501 4.40893 40.9197C2.97378 39.592 2.5 38.434 2.5 37.5C2.5 36.566 2.97378 35.408 4.40893 34.0803C5.84695 32.7499 8.06498 31.4368 11.0158 30.2822C16.902 27.9789 25.2041 26.5 34.5 26.5C43.7959 26.5 52.098 27.9789 57.9842 30.2822C60.935 31.4368 63.153 32.7499 64.5911 34.0803C66.0262 35.408 66.5 36.566 66.5 37.5Z" stroke="black" stroke-width="5"/>
<path d="M66.5 14C66.5 15.0376 65.9922 16.2695 64.558 17.6454C63.1172 19.0278 60.9002 20.3879 57.9551 21.583C52.0779 23.9679 43.7865 25.5 34.5 25.5C25.2135 25.5 16.9221 23.9679 11.0449 21.583C8.09983 20.3879 5.88279 19.0278 4.44196 17.6454C3.00778 16.2695 2.5 15.0376 2.5 14C2.5 12.9624 3.00778 11.7305 4.44196 10.3546C5.88279 8.97221 8.09983 7.61212 11.0449 6.41704C16.9221 4.03208 25.2135 2.5 34.5 2.5C43.7865 2.5 52.0779 4.03208 57.9551 6.41704C60.9002 7.61212 63.1172 8.97221 64.558 10.3546C65.9922 11.7305 66.5 12.9624 66.5 14Z" stroke="black" stroke-width="5"/>
<path d="M65.3148 41.3447C57.7133 45.5586 47.4468 48.121 36.5 48.4612L36.5 25.5H34L36.5 25.4999V25.4996V25.4992V25.4986V25.4978V25.4968V25.4957V25.4944V25.4929V25.4912V25.4893V25.4873V25.4851V25.4828V25.4803V25.4776V25.4115V25.406V25.4003V25.3944V25.3884V25.3822V25.3759V25.3694V25.3627L36.5 25.3559V25.349V25.3418V25.3345V25.3271V25.3195V25.3117V25.3038V25.2957V25.2875V25.2791V25.2706V25.2619V25.2531V25.2441V25.2349V25.2256V25.2162V25.2066V25.1969V25.187V25.1769V25.1667V25.1564L36.5 24.208V24.1891V24.17V24.1508V24.1315V24.1121V24.0925V24.0729V24.0531V24.0332V24.0132V23.9931V23.9729V23.9526V23.9321V23.9116V23.8909V23.8702V23.8493V23.8283V23.8072V23.786V23.7647V23.7433V23.7217V23.7001L36.5 23.6784V23.6565V23.6346V23.6125V23.5904V23.5681V23.5457V23.5233V23.5007V23.478V23.4553V23.4324V23.4094V23.3864V23.3632V23.3399V23.3166V23.2931V23.2695V23.2459V23.2221V23.1983V23.1743V23.1503V23.1262V23.1019V23.0776V23.0532V23.0287V23.0041V22.9794V22.9547V22.9298V22.9048V22.8798L36.5 22.8546V22.8294V22.8041V22.7787V22.7532V22.7276V22.702V22.6762V22.6504V22.6245V22.5985V22.5724V22.5462V22.52V22.4936V22.4672V22.4407V22.4141V22.3875V22.3607V22.3339V22.307V22.28V22.253V22.2258V22.1986V22.1713V22.144V22.1165V22.089V22.0614L36.5 22.0338V22.006V21.9782V21.9503V21.9224L36.5 20.9922L36.5 12.75L36.5 6.375L36.5 2.5388C47.4468 2.87896 57.7133 5.4414 65.3148 9.65529C73.5505 14.2207 77.5 20.0289 77.5 25.5C77.5 30.9712 73.5505 36.7793 65.3148 41.3447Z" stroke="black" stroke-width="5"/>
<path d="M65.3148 65.3447C57.7133 69.5586 47.4468 72.121 36.5 72.4612L36.5 49.5H34L36.5 49.4999V49.4996V49.4992V49.4986V49.4978V49.4968V49.4957V49.4944V49.4929V49.4912V49.4893V49.4873V49.4851V49.4828V49.4803V49.4776V49.4115V49.406V49.4003V49.3944V49.3884V49.3822V49.3759V49.3694V49.3627L36.5 49.3559V49.349V49.3418V49.3345V49.3271V49.3195V49.3117V49.3038V49.2957V49.2875V49.2791V49.2706V49.2619V49.2531V49.2441V49.2349V49.2256V49.2162V49.2066V49.1969V49.187V49.1769V49.1667V49.1564L36.5 48.208V48.1891V48.17V48.1508V48.1315V48.1121V48.0925V48.0729V48.0531V48.0332V48.0132V47.9931V47.9729V47.9526V47.9321V47.9116V47.8909V47.8702V47.8493V47.8283V47.8072V47.786V47.7647V47.7433V47.7217V47.7001L36.5 47.6784V47.6565V47.6346V47.6125V47.5904V47.5681V47.5457V47.5233V47.5007V47.478V47.4553V47.4324V47.4094V47.3864V47.3632V47.3399V47.3166V47.2931V47.2695V47.2459V47.2221V47.1983V47.1743V47.1503V47.1262V47.1019V47.0776V47.0532V47.0287V47.0041V46.9794V46.9547V46.9298V46.9048V46.8798L36.5 46.8546V46.8294V46.8041V46.7787V46.7532V46.7276V46.702V46.6762V46.6504V46.6245V46.5985V46.5724V46.5462V46.52V46.4936V46.4672V46.4407V46.4141V46.3875V46.3607V46.3339V46.307V46.28V46.253V46.2258V46.1986V46.1713V46.144V46.1165V46.089V46.0614L36.5 46.0338V46.006V45.9782V45.9503V45.9224L36.5 44.9922L36.5 36.75L36.5 30.375L36.5 26.5388C47.4468 26.879 57.7133 29.4414 65.3148 33.6553C73.5505 38.2207 77.5 44.0289 77.5 49.5C77.5 54.9712 73.5505 60.7793 65.3148 65.3447Z" stroke="black" stroke-width="5"/>
<rect x="33" y="52" width="7" height="18" rx="1" fill="white"/>
<rect x="33" y="29" width="7" height="17" rx="1" fill="white"/>
<rect x="33" y="5" width="7" height="18" rx="1" fill="white"/>
</svg>
