<svg width="162" height="100" viewBox="0 0 162 100" fill="none" xmlns="http://www.w3.org/2000/svg">
<rect x="162" y="45.5031" width="9" height="152" transform="rotate(90 162 45.5031)" fill="black"/>
<path d="M107.982 1.00002C107.982 1.00002 111.583 18.2859 125.267 31.9706C139.672 46.3755 160.56 49.9768 160.56 49.9768" stroke="black" stroke-width="7.20247"/>
<path d="M107.982 98.9536C107.982 98.9536 111.583 81.6676 125.267 67.983C139.672 53.578 160.56 49.9768 160.56 49.9768" stroke="black" stroke-width="7.20247"/>
<path d="M5 32.7838C5.44144 37.6396 8.70811 47.8811 18.2432 50" stroke="black" stroke-width="8.82883"/>
<path d="M20.8919 32.7838C21.3333 37.6396 24.6 47.8811 34.1352 50" stroke="black" stroke-width="8.82883"/>
<path d="M36.7838 32.7838C37.2253 37.6396 40.4919 47.8811 50.0271 50" stroke="black" stroke-width="8.82883"/>
<path d="M5 66.7748C5.44144 61.9189 8.70811 51.6775 18.2432 49.5586" stroke="black" stroke-width="8.82883"/>
<path d="M20.8919 66.7748C21.3333 61.9189 24.6 51.6775 34.1352 49.5586" stroke="black" stroke-width="8.82883"/>
<path d="M36.7838 66.7748C37.2253 61.9189 40.4919 51.6775 50.0271 49.5586" stroke="black" stroke-width="8.82883"/>
</svg>
