<svg width="68" height="68" viewBox="0 0 68 68" fill="none" xmlns="http://www.w3.org/2000/svg">
<rect x="3.5" y="3.5" width="61" height="61" rx="30.5" stroke="white" stroke-width="7"/>
<path d="M64 14.5C64 15.514 63.5449 16.7135 62.2454 18.0635C60.9316 19.4283 58.8866 20.7942 56.1277 22.0065C50.6184 24.4272 42.7975 26 34 26C25.2025 26 17.3816 24.4272 11.8723 22.0065C9.11339 20.7942 7.06838 19.4283 5.75465 18.0635C4.45509 16.7135 4 15.514 4 14.5C4 13.486 4.45509 12.2865 5.75465 10.9365C7.06838 9.57171 9.11339 8.20576 11.8723 6.99351C17.3816 4.57277 25.2025 3 34 3C42.7975 3 50.6184 4.57277 56.1277 6.99351C58.8866 8.20576 60.9316 9.57171 62.2454 10.9365C63.5449 12.2865 64 13.486 64 14.5Z" stroke="white" stroke-width="6"/>
</svg>
