<svg width="59" height="126" viewBox="0 0 59 126" fill="none" xmlns="http://www.w3.org/2000/svg">
<path d="M58.7802 30.5884C58.7802 47.0698 45.6218 60.4306 29.3901 60.4306C13.1584 60.4306 0 47.0698 0 30.5884C0 14.107 13.1584 0.746155 29.3901 0.746155C45.6218 0.746155 58.7802 14.107 58.7802 30.5884ZM5.38924 30.5884C5.38924 44.0476 16.1348 54.9585 29.3901 54.9585C42.6454 54.9585 53.3909 44.0476 53.3909 30.5884C53.3909 17.1292 42.6454 6.21831 29.3901 6.21831C16.1348 6.21831 5.38924 17.1292 5.38924 30.5884Z" fill="black"/>
<path d="M58.7802 63.1435C58.7802 79.625 45.6218 92.9858 29.3901 92.9858C13.1584 92.9858 0 79.625 0 63.1435C0 46.6621 13.1584 33.3013 29.3901 33.3013C45.6218 33.3013 58.7802 46.6621 58.7802 63.1435ZM5.38924 63.1435C5.38924 76.6028 16.1348 87.5136 29.3901 87.5136C42.6454 87.5136 53.3909 76.6028 53.3909 63.1435C53.3909 49.6843 42.6454 38.7735 29.3901 38.7735C16.1348 38.7735 5.38924 49.6843 5.38924 63.1435Z" fill="black"/>
<path d="M58.7802 95.4116C58.7802 89.5094 57.0565 83.7397 53.827 78.8322C50.5976 73.9247 46.0075 70.0997 40.6372 67.841C35.2668 65.5823 29.3575 64.9913 23.6564 66.1428C17.9552 67.2943 12.7184 70.1365 8.60815 74.31C4.49788 78.4835 1.69874 83.8009 0.564722 89.5897C-0.5693 95.3785 0.0127211 101.379 2.23719 106.832C4.46165 112.285 8.22865 116.945 13.0618 120.225C17.895 123.504 23.5773 125.254 29.3901 125.254L29.3901 119.782C24.6432 119.782 20.0028 118.352 16.0559 115.675C12.109 112.997 9.03276 109.191 7.2162 104.738C5.39963 100.285 4.92433 95.3846 5.85041 90.6573C6.77649 85.9299 9.06235 81.5876 12.4189 78.1794C15.7755 74.7712 20.052 72.4501 24.7077 71.5098C29.3635 70.5695 34.1892 71.0521 38.5748 72.8966C42.9604 74.7411 46.7088 77.8647 49.346 81.8723C51.9833 85.88 53.3909 90.5917 53.3909 95.4116H58.7802Z" fill="black"/>
</svg>
