<svg width="71" height="78" viewBox="0 0 71 78" fill="none" xmlns="http://www.w3.org/2000/svg">
<circle cx="35.0001" cy="35" r="27.5" stroke="black" stroke-width="5"/>
<path d="M67.5001 65C67.5001 65.828 67.0639 66.9125 65.626 68.1935C64.1902 69.4726 61.9706 70.7388 59.0138 71.853C53.1182 74.0745 44.8055 75.5 35.5001 75.5C26.1948 75.5 17.8821 74.0745 11.9865 71.853C9.0296 70.7388 6.81003 69.4726 5.37429 68.1935C3.93638 66.9125 3.50012 65.828 3.50012 65C3.50012 64.172 3.93638 63.0875 5.37429 61.8065C6.81003 60.5274 9.0296 59.2612 11.9865 58.147C17.8821 55.9255 26.1948 54.5 35.5001 54.5C44.8055 54.5 53.1182 55.9255 59.0138 58.147C61.9706 59.2612 64.1902 60.5274 65.626 61.8065C67.0639 63.0875 67.5001 64.172 67.5001 65Z" stroke="black" stroke-width="5"/>
<circle cx="35.072" cy="35.0719" r="25.2838" transform="rotate(123.769 35.072 35.0719)" fill="url(#paint0_linear_22_82)"/>
<defs>
<linearGradient id="paint0_linear_22_82" x1="35.072" y1="9.78816" x2="35.072" y2="60.3557" gradientUnits="userSpaceOnUse">
<stop stop-color="#EDEDED"/>
<stop offset="0.6875" stop-color="#EDEDED"/>
<stop offset="0.6876" stop-color="#EDEDED" stop-opacity="0"/>
</linearGradient>
</defs>
</svg>
